<svg width="479" height="467" viewBox="0 0 479 467" fill="none" xmlns="http://www.w3.org/2000/svg">
<path d="M24.5579 219.518C24.5579 215.527 27.8468 210.396 31.9056 208.057L128.009 153.02C129.711 152.038 131.278 151.707 132.524 151.945C132.524 151.945 134.742 152.251 136.384 154.108C135.899 153.593 135.263 153.262 134.513 153.135C133.725 153.002 132.811 153.095 131.82 153.431C131.687 153.475 131.551 153.526 131.416 153.58C131.407 153.584 131.398 153.586 131.389 153.591C131.251 153.646 131.111 153.704 130.97 153.769C130.966 153.771 130.964 153.773 130.959 153.773C130.832 153.831 130.706 153.893 130.579 153.957C130.548 153.973 130.517 153.988 130.485 154.004C130.352 154.073 130.218 154.146 130.083 154.224L33.9773 209.263C29.9207 211.602 26.6296 216.733 26.6296 220.725V270.144C26.6296 271.359 26.9367 272.327 27.4729 273.02C27.8802 273.547 28.4231 273.915 29.0684 274.113C24.9651 273.134 24.6714 270.153 24.6714 270.153C24.5957 269.779 24.5557 269.373 24.5557 268.935V219.518H24.5579Z" fill="#D4ECFF"/>
<path d="M27.4752 273.022C26.9367 272.327 26.6318 271.361 26.6318 270.146V220.724C26.6318 216.733 29.9207 211.602 33.9795 209.263L130.083 154.226C130.218 154.148 130.352 154.075 130.485 154.006C130.517 153.99 130.548 153.975 130.579 153.959C130.706 153.895 130.832 153.833 130.959 153.775C130.964 153.773 130.966 153.771 130.97 153.771C131.111 153.706 131.251 153.646 131.389 153.593C131.398 153.588 131.407 153.586 131.415 153.582C131.551 153.528 131.687 153.477 131.82 153.433C132.811 153.098 133.725 153.006 134.513 153.138C135.263 153.264 135.899 153.595 136.384 154.11C136.482 154.215 136.574 154.326 136.66 154.444C136.663 154.448 136.665 154.45 136.667 154.455C137.154 155.141 137.43 156.07 137.43 157.222V206.642C137.43 210.633 134.141 215.764 130.083 218.103L33.9795 273.14C32.0925 274.228 30.3724 274.517 29.0707 274.117C28.4254 273.915 27.8846 273.549 27.4752 273.022Z" fill="#173D7A"/>
<path d="M117.1 199.554L117.27 139.657C117.27 139.737 117.265 139.814 117.254 139.894C117.252 139.921 117.245 139.946 117.241 139.972C117.234 140.023 117.225 140.072 117.214 140.123C117.189 140.234 117.156 140.343 117.114 140.452C117.105 140.476 117.094 140.501 117.083 140.525C117.04 140.625 116.994 140.723 116.938 140.818C116.931 140.83 116.925 140.843 116.918 140.854C116.856 140.958 116.782 141.061 116.704 141.158C116.686 141.183 116.666 141.205 116.646 141.227C116.562 141.327 116.473 141.423 116.375 141.516C100.772 154.151 81.8773 165.113 60.0767 174.175C59.9143 174.244 59.743 174.307 59.5694 174.362C59.5204 174.378 59.4693 174.393 59.4181 174.406C59.2801 174.446 59.1377 174.482 58.9931 174.515C58.9485 174.526 58.904 174.538 58.8573 174.546C58.6726 174.584 58.4835 174.615 58.2921 174.64C58.2543 174.644 58.2142 174.649 58.1742 174.653C58.0162 174.671 57.856 174.686 57.6958 174.695C55.9935 174.802 54.1665 174.462 52.9338 173.82L52.7646 233.717C53.9752 234.348 55.7598 234.688 57.4376 234.597V234.599C57.4666 234.597 57.4955 234.592 57.5266 234.59C57.6868 234.579 57.8471 234.565 58.0051 234.548C58.0451 234.543 58.0852 234.541 58.123 234.534C58.3144 234.51 58.5035 234.479 58.6882 234.441C58.7349 234.432 58.7772 234.421 58.8239 234.41C58.9686 234.379 59.1088 234.341 59.2467 234.301C59.2979 234.286 59.3491 234.272 59.398 234.257C59.5738 234.201 59.743 234.141 59.9054 234.072C81.7082 225.009 100.6 214.05 116.204 201.413C116.304 201.32 116.393 201.224 116.475 201.124C116.495 201.102 116.513 201.077 116.533 201.055C116.611 200.957 116.684 200.855 116.747 200.751C116.753 200.74 116.76 200.726 116.767 200.715C116.822 200.62 116.871 200.522 116.911 200.422C116.922 200.398 116.931 200.373 116.942 200.349C116.985 200.24 117.018 200.131 117.043 200.02C117.045 200.013 117.047 200.009 117.047 200.002C117.056 199.958 117.063 199.913 117.069 199.869C117.074 199.845 117.078 199.818 117.083 199.793C117.094 199.711 117.1 199.631 117.1 199.554Z" fill="#396CAA"/>
<path d="M57.6087 174.702L57.4396 234.599C55.7618 234.69 53.9771 234.346 52.7666 233.717L52.9357 173.82C54.1485 174.449 55.9331 174.793 57.6087 174.702Z" fill="#396CAA"/>
<path d="M51.0514 172.732C49.7585 171.988 48.4657 171.241 47.1728 170.497C46.7122 170.233 46.2516 169.966 45.7932 169.702C45.0032 169.204 44.5382 168.531 44.4803 167.856H44.4736V228.939L46.2049 229.936H46.2093C48.3967 231.198 50.5841 232.458 52.7715 233.719L52.9406 173.822C52.3087 173.458 51.6789 173.094 51.0514 172.732Z" fill="#173D7A"/>
<path d="M115.739 137.389C113.355 136.016 110.974 134.643 108.48 133.204C106.722 132.191 103.747 132.362 102.018 133.273C83.268 144.148 64.5205 155.026 45.7685 165.903C44.8094 166.421 44.4156 167.141 44.4757 167.856C44.5335 168.533 44.9986 169.206 45.7885 169.702C46.2492 169.966 46.7098 170.233 47.1682 170.497C48.461 171.243 49.7539 171.987 51.0468 172.732C51.6765 173.094 52.304 173.456 52.9337 173.818C54.7851 174.782 57.9761 175.073 60.0745 174.173C81.8773 165.11 100.769 154.151 116.373 141.514C117.674 140.316 117.639 138.484 115.739 137.389Z" fill="#D4ECFF"/>
<path d="M104.234 123.875V143.513C104.234 144.188 103.791 144.864 102.906 145.381C101.132 146.414 98.2616 146.414 96.4881 145.381C95.598 144.864 95.1574 144.182 95.1596 143.504V123.875C95.1596 120.483 94.1961 117.982 92.5161 117.015C90.836 116.047 88.1858 116.464 85.2418 118.162L80.2395 121.043C72.4045 125.558 65.7867 137.005 65.7867 146.034V165.673C65.7867 166.348 65.3416 167.025 64.456 167.541C63.3189 168.203 61.7301 168.44 60.2681 168.251C59.4537 168.147 58.6748 167.909 58.0406 167.541C57.8003 167.401 57.5934 167.252 57.4198 167.092C56.9436 166.659 56.7077 166.161 56.7122 165.666L56.71 146.034C56.71 140.126 58.6704 133.48 62.233 127.322C65.7911 121.169 70.5776 116.149 75.7045 113.195L80.7068 110.312C83.5328 108.683 86.35 107.737 89.0759 107.499C91.9687 107.251 94.7302 107.826 97.0555 109.168C99.3831 110.509 101.261 112.606 102.49 115.232C103.647 117.711 104.234 120.618 104.234 123.875Z" fill="#173D7A"/>
<path d="M91.481 208.249C92.4213 206.647 92.4323 204.908 91.5055 204.366C90.5786 203.824 89.0649 204.684 88.1246 206.287C87.1842 207.89 87.1732 209.628 88.1001 210.17C89.0269 210.712 90.5406 209.852 91.481 208.249Z" fill="#FF2C9C"/>
<path d="M91.482 197.56C92.4223 195.957 92.4333 194.219 91.5065 193.677C90.5796 193.135 89.0659 193.995 88.1255 195.598C87.1852 197.2 87.1742 198.939 88.1011 199.481C89.0279 200.023 90.5416 199.163 91.482 197.56Z" fill="#FF2C9C"/>
<path d="M90.689 186.87C91.6294 185.267 91.6403 183.529 90.7135 182.987C89.7866 182.445 88.2729 183.305 87.3326 184.908C86.3922 186.51 86.3813 188.249 87.3081 188.791C88.235 189.333 89.7486 188.473 90.689 186.87Z" fill="#D4ECFF"/>
<path d="M85.4019 150.434L77.3443 155.079C76.5143 155.557 76.5099 156.33 77.3332 156.803C78.1565 157.278 79.4961 157.274 80.3239 156.796L88.3814 152.151C89.2115 151.674 89.2159 150.901 88.3926 150.428C87.5692 149.952 86.2297 149.957 85.4019 150.434Z" fill="#396CAA"/>
<path d="M380.774 89.818C387.007 93.392 392.377 92.3414 394.916 87.7966C392.728 87.8633 390.234 87.1813 387.581 85.6598C378.941 80.7041 371.829 68.4937 371.809 58.5823C371.805 55.7857 372.37 53.4556 373.38 51.6675C368.4 51.8474 364.989 55.8879 365.002 62.7406C365.022 72.6519 372.134 84.8623 380.774 89.818Z" fill="#396CAA"/>
<path d="M380.689 105.92C380.698 105.893 380.709 105.869 380.718 105.844C380.632 105.793 380.545 105.742 380.458 105.693C380.536 105.767 380.614 105.842 380.689 105.92Z" fill="#396CAA"/>
<path d="M416.884 82.9879C416.884 82.9854 416.884 82.9829 416.884 82.9805C416.881 82.9854 416.881 82.9879 416.884 82.9879Z" fill="#396CAA"/>
<path d="M416.153 77.9072C416.209 78.2915 416.262 78.6714 416.318 79.049C416.262 78.6714 416.209 78.2915 416.153 77.9072Z" fill="#396CAA"/>
<path d="M385.207 32.0645C385.779 32.3932 386.353 32.7242 386.932 33.0574C386.353 32.7242 385.779 32.3932 385.207 32.0645Z" fill="#396CAA"/>
<path d="M424.046 81.3304C423.694 78.8492 423.336 76.3658 422.962 73.7514C420.621 72.8739 418.432 72.081 416.233 71.2013C415.87 71.0547 415.247 70.5438 415.101 70.1706C413.797 66.8365 412.57 63.4935 411.258 59.9794C412.769 58.7821 414.411 57.4805 416.095 56.1455C412.893 51.2276 409.805 46.4807 406.662 41.6561C405.183 42.8178 403.745 43.884 402.377 45.0502C401.865 45.4855 401.484 45.4256 400.666 44.5459C398.77 42.5046 396.816 40.5432 394.833 38.7284C393.943 37.9154 393.694 37.3934 393.718 36.3983C393.783 33.9393 393.738 31.4182 393.738 28.9015C389.562 26.4958 385.538 24.1768 381.42 21.8022L374.61 25.9605C376.896 27.2777 379.15 28.5772 381.417 29.8833C382.672 30.6074 383.934 31.3338 385.205 32.0668C385.777 32.3955 386.351 32.7265 386.929 33.0597C386.929 35.5764 386.971 38.0998 386.909 40.5565C386.882 41.5517 387.132 42.0714 388.024 42.8866C390.009 44.6992 391.96 46.6606 393.856 48.7042C394.675 49.586 395.056 49.6438 395.568 49.2084C396.938 48.0422 398.374 46.9738 399.853 45.8143C402.995 50.6389 406.084 55.3858 409.286 60.3037C407.604 61.6387 405.959 62.9404 404.448 64.1376C405.761 67.6517 406.987 70.9947 408.291 74.3289C408.438 74.7021 409.059 75.2152 409.424 75.3596C411.625 76.2392 413.812 77.0322 416.153 77.9096C416.209 78.2939 416.262 78.6737 416.318 79.0513C416.509 80.3863 416.696 81.6902 416.881 82.983C416.881 82.9852 416.881 82.9874 416.881 82.9897C417.001 83.8271 417.119 84.6578 417.237 85.4886C417.292 85.8862 417.35 86.2838 417.406 86.6814C417.697 88.7406 417.987 90.8175 418.296 93.0121L425.105 88.8538C424.738 86.2327 424.395 83.7827 424.046 81.3304Z" fill="#396CAA"/>
<path d="M353.199 42.6313C353.189 42.6385 353.177 42.6479 353.168 42.6551C353.18 42.6479 353.189 42.6385 353.199 42.6313Z" fill="#396CAA"/>
<path d="M353.044 42.7202C353.03 42.725 353.018 42.7273 353.004 42.7321C353.018 42.7273 353.032 42.725 353.044 42.7202Z" fill="#396CAA"/>
<path d="M353.135 42.6758C353.123 42.6829 353.113 42.69 353.102 42.6947C353.111 42.69 353.123 42.6829 353.135 42.6758Z" fill="#396CAA"/>
<path d="M353.263 42.5732C353.256 42.5802 353.249 42.5848 353.242 42.5918C353.249 42.5871 353.256 42.5802 353.263 42.5732Z" fill="#396CAA"/>
<path d="M353.345 42.48C353.338 42.4895 353.331 42.4989 353.324 42.5084C353.331 42.4989 353.338 42.4895 353.345 42.48Z" fill="#396CAA"/>
<path d="M353.41 42.3911C353.403 42.4006 353.396 42.4101 353.389 42.4219C353.398 42.4101 353.403 42.4006 353.41 42.3911Z" fill="#396CAA"/>
<path d="M352.973 42.7378C352.959 42.7401 352.943 42.7423 352.93 42.7446C352.946 42.7423 352.959 42.7401 352.973 42.7378Z" fill="#396CAA"/>
<path d="M352.799 42.7378C352.835 42.7445 352.871 42.7467 352.904 42.7445C352.871 42.7445 352.837 42.7445 352.799 42.7378Z" fill="#396CAA"/>
<path d="M352.508 42.6313C352.559 42.658 352.608 42.6802 352.655 42.698C352.608 42.6802 352.559 42.658 352.508 42.6313Z" fill="#396CAA"/>
<path d="M352.797 42.7379C352.779 42.7357 352.759 42.7313 352.741 42.7246C352.759 42.7291 352.779 42.7335 352.797 42.7379Z" fill="#396CAA"/>
<path d="M352.719 42.7179C352.699 42.7112 352.678 42.7067 352.658 42.6978C352.681 42.7067 352.701 42.7134 352.719 42.7179Z" fill="#396CAA"/>
<path d="M351.98 42.2647C352.182 42.4268 352.356 42.549 352.51 42.6312C352.561 42.6578 352.61 42.6801 352.656 42.6978C352.659 42.6978 352.661 42.7001 352.661 42.7001C352.681 42.7067 352.701 42.7134 352.721 42.72C352.728 42.7223 352.734 42.7245 352.741 42.7267C352.761 42.7312 352.779 42.7356 352.797 42.74C352.799 42.74 352.799 42.74 352.801 42.74C352.837 42.7467 352.872 42.7489 352.906 42.7467C352.915 42.7467 352.923 42.7467 352.932 42.7467C352.946 42.7445 352.961 42.7445 352.975 42.74C352.986 42.7378 352.995 42.7356 353.006 42.7334C353.019 42.7312 353.032 42.7267 353.044 42.7223C353.064 42.7156 353.084 42.7067 353.104 42.6978C353.115 42.6934 353.124 42.6867 353.135 42.6801C353.148 42.6734 353.159 42.6645 353.173 42.6556C353.182 42.649 353.193 42.6423 353.202 42.6334C353.217 42.6223 353.231 42.609 353.246 42.5957C353.253 42.589 353.259 42.5845 353.266 42.5779C353.286 42.5579 353.306 42.5357 353.328 42.5112C353.335 42.5024 353.342 42.4935 353.348 42.4846C353.364 42.4646 353.38 42.4446 353.395 42.4224C353.402 42.4135 353.409 42.4046 353.415 42.3935C353.437 42.3624 353.457 42.3291 353.48 42.2936C354.459 40.6698 355.56 39.1815 356.713 37.7666C356.996 37.4201 357.085 37.1135 356.947 36.6493C355.376 35.4231 353.789 34.2125 352.165 32.9575L345.355 37.1158C347.194 38.5374 348.983 39.8968 350.754 41.2918C351.161 41.6138 351.571 41.9382 351.98 42.2647Z" fill="#396CAA"/>
<path d="M365.044 30.3341C364.975 30.1963 364.906 30.0586 364.837 29.9209C364.906 30.0564 364.975 30.1963 365.044 30.3341Z" fill="#396CAA"/>
<path d="M365.803 31.8668C365.643 31.5403 365.483 31.2137 365.32 30.8872C365.483 31.2115 365.645 31.538 365.803 31.8668Z" fill="#396CAA"/>
<path d="M363.869 28.0308C363.869 28.0335 363.872 28.0335 363.872 28.0363C363.869 28.0335 363.869 28.0308 363.869 28.0308Z" fill="#396CAA"/>
<path d="M364.444 29.1502C364.413 29.088 364.382 29.028 364.351 28.9658C364.382 29.028 364.413 29.088 364.444 29.1502Z" fill="#396CAA"/>
<path d="M361.671 23.7991C362.403 25.2208 363.142 26.6268 363.867 28.0307C363.867 28.0329 363.869 28.0329 363.869 28.0351C364.03 28.3461 364.19 28.6571 364.35 28.9658C364.381 29.028 364.412 29.088 364.444 29.1502C364.575 29.4056 364.706 29.6633 364.835 29.9188C364.904 30.0565 364.973 30.1942 365.042 30.3319C365.136 30.5163 365.227 30.7007 365.318 30.885C365.48 31.2115 365.641 31.5381 365.801 31.8646C366.433 33.1641 366.916 33.5483 367.881 33.6083C369.733 33.7216 371.673 34.0926 373.618 34.539C374.406 34.7212 374.644 34.5102 374.626 33.5905C374.597 32.2022 374.595 30.8273 374.599 29.4412C373.694 29.3634 373.22 28.9636 372.61 27.7064C371.302 25.0142 369.878 22.3575 368.478 19.6387C365.276 20.8693 362.187 22.0576 359.041 23.2682L352.231 27.4265C354.728 26.4669 357.189 25.5206 359.702 24.5544C360.356 24.3056 361.01 24.0524 361.671 23.7991Z" fill="#396CAA"/>
<path d="M397.205 112.322C397.283 112.624 397.363 112.926 397.441 113.23C397.363 112.926 397.285 112.624 397.205 112.322Z" fill="#396CAA"/>
<path d="M397.045 109.871C396.832 109.951 396.754 110.553 396.856 110.96C396.972 111.413 397.088 111.866 397.206 112.322C397.283 112.624 397.364 112.926 397.441 113.23C397.542 113.614 397.642 113.996 397.744 114.381C398.22 116.178 398.712 117.995 399.21 119.858L406.02 115.7C405.408 113.408 404.802 111.184 404.226 108.981C403.888 108.563 403.55 108.146 403.218 107.737C401.1 108.454 399.048 109.116 397.045 109.871Z" fill="#396CAA"/>
<path d="M412.916 103.436C411.703 101.93 410.53 100.475 409.413 99.0894C410.53 100.475 411.701 101.93 412.916 103.436Z" fill="#396CAA"/>
<path d="M416.22 94.9315C416.34 94.063 416.456 93.21 416.572 92.3637C414.883 91.7284 413.218 91.1043 411.565 90.529C411.202 90.4023 410.657 90.4823 410.608 90.7844C410.163 93.4633 409.811 96.2132 409.413 99.0898C410.53 100.476 411.703 101.931 412.916 103.437C413.89 104.647 414.892 105.889 415.915 107.16C415.448 107.817 414.983 108.47 414.518 109.123C412.933 111.349 411.358 113.564 409.758 115.812L416.567 111.653C418.634 108.748 420.666 105.894 422.724 103.001C420.426 100.152 418.236 97.4327 416.22 94.9315Z" fill="#396CAA"/>
<path d="M351.973 64.0931C351.9 63.7355 351.833 63.3779 351.771 63.0225H351.769L345.603 66.6409C347.441 66.4788 349.178 66.1989 351.021 66.21C352.156 66.2189 352.287 65.6236 351.973 64.0931Z" fill="#396CAA"/>
<path d="M380.461 105.691C379.488 105.122 378.516 104.525 377.548 103.905C376.709 103.368 376.413 103.476 376.166 104.172C375.463 106.14 374.682 108.032 373.883 110.076L380.99 105.998V105.995C380.901 105.944 380.812 105.893 380.723 105.842C380.634 105.793 380.547 105.742 380.461 105.691Z" fill="#396CAA"/>
<path d="M411.565 90.5285C413.221 91.1039 414.883 91.728 416.572 92.3633C417.144 92.5788 417.718 92.7943 418.296 93.0097C417.987 90.8151 417.698 88.7382 417.406 86.6791C417.351 86.2815 417.293 85.8839 417.237 85.4862C417.119 84.6555 417.001 83.8225 416.881 82.9873C416.881 82.9851 416.881 82.9829 416.881 82.9806C416.696 81.6879 416.509 80.384 416.318 79.049C416.265 78.6713 416.209 78.2915 416.153 77.9072C413.812 77.0298 411.623 76.2368 409.424 75.3572C409.062 75.2106 408.438 74.6997 408.292 74.3265C406.988 70.9924 405.762 67.6494 404.449 64.1353C405.96 62.938 407.602 61.6363 409.286 60.3014C406.084 55.3834 402.996 50.6366 399.854 45.8119C398.374 46.9737 396.936 48.0399 395.568 49.2061C395.056 49.6414 394.675 49.5815 393.857 48.7018C391.961 46.6605 390.007 44.6991 388.024 42.8843C387.134 42.0713 386.885 41.5493 386.909 40.5542C386.974 38.0952 386.929 35.5741 386.929 33.0573C386.351 32.7242 385.779 32.3932 385.205 32.0644C383.934 31.3314 382.673 30.6051 381.418 29.8809C379.15 28.5748 376.894 27.2731 374.611 25.9581C374.611 27.1399 374.604 28.2949 374.602 29.4433C374.597 30.8294 374.602 32.2044 374.628 33.5927C374.646 34.5123 374.408 34.7233 373.62 34.5412C371.676 34.0925 369.735 33.7237 367.884 33.6104C366.916 33.5505 366.433 33.1662 365.803 31.8667C365.643 31.5402 365.483 31.2137 365.32 30.8872C365.229 30.7028 365.136 30.5184 365.044 30.3341C364.975 30.1963 364.906 30.0586 364.837 29.9209C364.708 29.6632 364.577 29.4078 364.446 29.1523C364.415 29.0901 364.383 29.0302 364.352 28.968C364.192 28.657 364.034 28.346 363.872 28.0373C363.872 28.035 363.869 28.035 363.869 28.0328C363.144 26.629 362.405 25.2229 361.673 23.8013C361.012 24.0545 360.356 24.3077 359.704 24.5587C357.194 25.525 354.733 26.4712 352.234 27.4308C353.747 30.3652 355.153 33.1551 356.624 35.9184C356.775 36.2049 356.882 36.4426 356.942 36.6492C357.078 37.1134 356.989 37.4222 356.709 37.7665C355.556 39.1792 354.454 40.6697 353.475 42.2934C353.453 42.329 353.433 42.3623 353.411 42.3934C353.404 42.4023 353.397 42.4112 353.391 42.4223C353.375 42.4445 353.36 42.4645 353.344 42.4845C353.337 42.4933 353.331 42.5022 353.324 42.5111C353.304 42.5356 353.284 42.5578 353.262 42.5778C353.255 42.5844 353.248 42.5889 353.242 42.5955C353.226 42.6089 353.213 42.6222 353.197 42.6333C353.188 42.6399 353.177 42.6488 353.168 42.6555C353.155 42.6644 353.144 42.671 353.13 42.6799C353.119 42.6866 353.11 42.6933 353.099 42.6977C353.079 42.7066 353.059 42.7155 353.039 42.7221C353.026 42.7266 353.015 42.7288 353.001 42.7332C352.992 42.7355 352.981 42.7377 352.97 42.7399C352.957 42.7421 352.941 42.7444 352.928 42.7466C352.919 42.7466 352.91 42.7466 352.901 42.7466C352.868 42.7466 352.832 42.7466 352.797 42.7399C352.794 42.7399 352.794 42.7399 352.792 42.7399C352.774 42.7377 352.754 42.7332 352.737 42.7266C352.73 42.7244 352.723 42.7221 352.717 42.7199C352.697 42.7133 352.677 42.7088 352.656 42.6999C352.654 42.6999 352.652 42.6977 352.652 42.6977C352.605 42.6799 352.556 42.6577 352.505 42.6311C352.352 42.5511 352.178 42.4289 351.976 42.2646C351.566 41.9358 351.157 41.6115 350.747 41.2894C348.974 39.8944 347.185 38.535 345.349 37.1134C344.623 41.4027 343.927 45.5321 343.215 49.7392C345.48 51.5095 347.627 53.251 349.795 54.8526C350.667 55.4967 350.896 56.0454 350.999 57.0405C351.201 59.0108 351.408 60.9988 351.769 63.0247C351.831 63.3801 351.898 63.7355 351.971 64.0953C352.285 65.6235 352.154 66.2211 351.019 66.2144C349.178 66.2033 347.441 66.4832 345.6 66.6453C347.694 71.9964 349.708 77.1453 351.762 82.392C354.076 82.2032 356.27 82.0233 358.366 81.85C360.581 85.2552 362.717 88.5449 364.893 91.8924C364.059 94.0537 363.202 96.2772 362.307 98.594C366.217 102.472 370.024 106.251 373.881 110.078C374.677 108.034 375.458 106.142 376.164 104.174C376.413 103.479 376.707 103.37 377.546 103.907C378.514 104.527 379.486 105.125 380.458 105.693C380.545 105.744 380.632 105.795 380.719 105.844C380.808 105.895 380.897 105.946 380.986 105.998C381.916 106.531 382.848 107.039 383.774 107.51C384.729 107.994 385.109 108.47 385.403 109.663C386.082 112.424 386.887 115.211 387.65 118.019C391.569 118.643 395.356 119.247 399.21 119.863C398.712 117.999 398.22 116.182 397.744 114.385C397.642 114.001 397.542 113.617 397.441 113.234C397.361 112.932 397.283 112.628 397.206 112.326C397.088 111.871 396.97 111.417 396.856 110.964C396.754 110.558 396.832 109.958 397.045 109.876C399.048 109.121 401.102 108.459 403.22 107.741C403.552 108.15 403.888 108.565 404.228 108.985C405.984 111.153 407.838 113.441 409.758 115.813C411.356 113.568 412.933 111.351 414.518 109.125C414.983 108.472 415.448 107.817 415.915 107.161C414.892 105.891 413.89 104.649 412.916 103.439C411.703 101.933 410.53 100.478 409.413 99.0916C409.814 96.2128 410.165 93.4651 410.608 90.7862C410.657 90.4819 411.202 90.4019 411.565 90.5285ZM394.916 87.7964C392.377 92.3411 387.005 93.3918 380.774 89.8177C372.134 84.8621 365.022 72.6517 365.002 62.7403C364.989 55.8877 368.402 51.8449 373.38 51.6672C375.583 51.5873 378.091 52.2648 380.746 53.7886C389.406 58.762 396.469 70.9124 396.478 80.8482C396.48 83.6626 395.919 86.0016 394.916 87.7964Z" fill="#173D7A"/>
<path d="M436.632 171.761C441.59 174.604 445.863 173.769 447.881 170.153C446.141 170.206 444.156 169.662 442.046 168.453C435.173 164.51 429.514 154.799 429.498 146.913C429.494 144.688 429.943 142.835 430.747 141.414C426.786 141.556 424.071 144.772 424.082 150.223C424.1 158.104 429.759 167.818 436.632 171.761Z" fill="#396CAA"/>
<path d="M436.565 184.569C436.574 184.549 436.581 184.529 436.59 184.509C436.521 184.469 436.452 184.429 436.383 184.389C436.443 184.449 436.503 184.509 436.565 184.569Z" fill="#396CAA"/>
<path d="M465.356 166.329C465.356 166.326 465.356 166.326 465.356 166.323C465.353 166.326 465.356 166.326 465.356 166.329Z" fill="#396CAA"/>
<path d="M464.775 162.287C464.82 162.591 464.862 162.894 464.907 163.196C464.862 162.894 464.82 162.591 464.775 162.287Z" fill="#396CAA"/>
<path d="M440.157 125.818C440.613 126.08 441.07 126.345 441.528 126.609C441.07 126.345 440.613 126.08 440.157 125.818Z" fill="#396CAA"/>
<path d="M471.054 165.008C470.774 163.034 470.489 161.059 470.191 158.98C468.328 158.282 466.588 157.651 464.837 156.952C464.548 156.836 464.054 156.427 463.936 156.132C462.899 153.48 461.924 150.821 460.878 148.024C462.08 147.071 463.386 146.036 464.726 144.975C462.18 141.063 459.721 137.287 457.222 133.448C456.045 134.372 454.901 135.221 453.813 136.149C453.406 136.496 453.103 136.449 452.451 135.747C450.943 134.124 449.389 132.562 447.812 131.12C447.104 130.474 446.906 130.059 446.926 129.268C446.977 127.313 446.942 125.305 446.942 123.304C443.619 121.389 440.42 119.545 437.142 117.657L431.726 120.965C433.544 122.011 435.337 123.046 437.142 124.086C438.141 124.661 439.144 125.238 440.155 125.823C440.611 126.085 441.067 126.349 441.526 126.613C441.526 128.615 441.559 130.623 441.51 132.578C441.49 133.368 441.688 133.784 442.396 134.43C443.973 135.872 445.526 137.433 447.035 139.057C447.687 139.759 447.99 139.806 448.397 139.459C449.487 138.531 450.629 137.682 451.806 136.758C454.305 140.596 456.764 144.373 459.31 148.284C457.97 149.346 456.664 150.381 455.462 151.334C456.508 154.131 457.483 156.789 458.52 159.442C458.635 159.739 459.132 160.146 459.421 160.261C461.17 160.961 462.912 161.592 464.775 162.289C464.819 162.594 464.861 162.896 464.906 163.198C465.057 164.26 465.206 165.297 465.355 166.325C465.355 166.328 465.355 166.328 465.355 166.33C465.451 166.996 465.545 167.656 465.638 168.318C465.683 168.633 465.727 168.951 465.772 169.266C466.003 170.904 466.234 172.556 466.479 174.302L471.895 170.995C471.604 168.909 471.33 166.961 471.054 165.008Z" fill="#396CAA"/>
<path d="M414.698 134.226C414.69 134.233 414.681 134.237 414.674 134.245C414.681 134.237 414.688 134.23 414.698 134.226Z" fill="#396CAA"/>
<path d="M414.573 134.294C414.561 134.299 414.552 134.302 414.54 134.304C414.552 134.302 414.564 134.299 414.573 134.294Z" fill="#396CAA"/>
<path d="M414.644 134.261C414.635 134.266 414.628 134.273 414.618 134.275C414.628 134.271 414.637 134.266 414.644 134.261Z" fill="#396CAA"/>
<path d="M414.748 134.179C414.743 134.184 414.736 134.188 414.731 134.195C414.736 134.191 414.741 134.186 414.748 134.179Z" fill="#396CAA"/>
<path d="M414.812 134.106C414.807 134.113 414.801 134.12 414.796 134.127C414.801 134.12 414.805 134.113 414.812 134.106Z" fill="#396CAA"/>
<path d="M414.864 134.035C414.859 134.042 414.852 134.051 414.848 134.058C414.855 134.049 414.859 134.042 414.864 134.035Z" fill="#396CAA"/>
<path d="M414.521 134.31C414.509 134.312 414.497 134.315 414.485 134.315C414.497 134.312 414.509 134.312 414.521 134.31Z" fill="#396CAA"/>
<path d="M414.38 134.31C414.409 134.315 414.436 134.317 414.465 134.315C414.436 134.317 414.409 134.315 414.38 134.31Z" fill="#396CAA"/>
<path d="M414.146 134.226C414.187 134.248 414.227 134.266 414.263 134.279C414.227 134.264 414.189 134.246 414.146 134.226Z" fill="#396CAA"/>
<path d="M414.377 134.31C414.361 134.308 414.347 134.303 414.331 134.299C414.347 134.303 414.363 134.308 414.377 134.31Z" fill="#396CAA"/>
<path d="M414.316 134.295C414.3 134.29 414.284 134.286 414.269 134.279C414.284 134.286 414.3 134.29 414.316 134.295Z" fill="#396CAA"/>
<path d="M413.726 133.935C413.889 134.064 414.027 134.161 414.147 134.226C414.187 134.248 414.227 134.266 414.262 134.279C414.265 134.279 414.265 134.281 414.267 134.281C414.282 134.288 414.298 134.292 414.314 134.297C414.318 134.299 414.325 134.299 414.329 134.301C414.345 134.306 414.36 134.308 414.374 134.312H414.376C414.405 134.317 414.432 134.319 414.461 134.317C414.467 134.317 414.474 134.317 414.481 134.317C414.492 134.317 414.503 134.315 414.514 134.312C414.523 134.31 414.529 134.308 414.538 134.308C414.55 134.306 414.558 134.304 414.57 134.299C414.585 134.292 414.601 134.286 414.616 134.279C414.625 134.275 414.632 134.27 414.641 134.266C414.65 134.259 414.661 134.255 414.67 134.246C414.676 134.241 414.685 134.235 414.692 134.228C414.703 134.219 414.714 134.208 414.728 134.197C414.732 134.192 414.739 134.188 414.743 134.181C414.759 134.166 414.776 134.146 414.792 134.128C414.797 134.121 414.803 134.115 414.808 134.108C414.821 134.093 414.832 134.077 414.845 134.059C414.85 134.053 414.857 134.044 414.861 134.037C414.879 134.013 414.894 133.986 414.912 133.959C415.691 132.669 416.568 131.482 417.485 130.359C417.709 130.083 417.778 129.839 417.671 129.468C416.421 128.493 415.159 127.531 413.866 126.531L408.45 129.839C409.912 130.969 411.336 132.051 412.745 133.162C413.076 133.415 413.401 133.673 413.726 133.935Z" fill="#396CAA"/>
<path d="M424.12 124.443C424.064 124.334 424.011 124.223 423.955 124.114C424.008 124.223 424.064 124.332 424.12 124.443Z" fill="#396CAA"/>
<path d="M424.724 125.662C424.597 125.403 424.47 125.143 424.341 124.883C424.47 125.14 424.597 125.4 424.724 125.662Z" fill="#396CAA"/>
<path d="M423.183 122.611C423.183 122.611 423.183 122.614 423.185 122.614C423.185 122.614 423.185 122.611 423.183 122.611Z" fill="#396CAA"/>
<path d="M423.643 123.502C423.618 123.453 423.593 123.404 423.566 123.354C423.593 123.404 423.618 123.453 423.643 123.502Z" fill="#396CAA"/>
<path d="M421.437 119.245C422.02 120.376 422.607 121.495 423.184 122.61C423.184 122.61 423.184 122.613 423.186 122.613C423.313 122.859 423.442 123.106 423.569 123.355C423.593 123.404 423.618 123.452 423.644 123.501C423.749 123.706 423.853 123.91 423.956 124.114C424.011 124.223 424.067 124.334 424.121 124.443C424.194 124.59 424.267 124.736 424.341 124.883C424.47 125.143 424.599 125.403 424.724 125.663C425.226 126.695 425.609 127.002 426.379 127.049C427.852 127.14 429.394 127.433 430.943 127.788C431.571 127.933 431.76 127.764 431.744 127.033C431.722 125.929 431.72 124.836 431.722 123.732C431.001 123.67 430.625 123.352 430.138 122.353C429.096 120.212 427.963 118.097 426.851 115.936C424.303 116.915 421.846 117.859 419.343 118.823L413.927 122.131C415.914 121.367 417.872 120.614 419.868 119.845C420.389 119.647 420.912 119.447 421.437 119.245Z" fill="#396CAA"/>
<path d="M449.703 189.662C449.765 189.902 449.828 190.144 449.892 190.384C449.828 190.142 449.765 189.902 449.703 189.662Z" fill="#396CAA"/>
<path d="M449.574 187.714C449.403 187.779 449.343 188.256 449.425 188.58C449.516 188.94 449.61 189.302 449.703 189.664C449.766 189.904 449.828 190.146 449.892 190.386C449.973 190.691 450.053 190.995 450.133 191.302C450.511 192.732 450.903 194.176 451.299 195.657L456.715 192.35C456.228 190.526 455.747 188.756 455.289 187.006C455.019 186.672 454.75 186.341 454.488 186.017C452.801 186.586 451.17 187.112 449.574 187.714Z" fill="#396CAA"/>
<path d="M462.198 182.594C461.232 181.397 460.3 180.239 459.412 179.138C460.302 180.239 461.235 181.397 462.198 182.594Z" fill="#396CAA"/>
<path d="M464.828 175.828C464.924 175.137 465.017 174.457 465.108 173.784C463.764 173.28 462.443 172.783 461.125 172.325C460.836 172.225 460.404 172.287 460.364 172.527C460.01 174.657 459.73 176.845 459.414 179.133C460.302 180.235 461.234 181.392 462.2 182.59C462.977 183.551 463.771 184.54 464.585 185.551C464.214 186.073 463.844 186.592 463.473 187.112C462.213 188.883 460.958 190.644 459.688 192.432L465.104 189.125C466.748 186.812 468.364 184.544 470.002 182.243C468.175 179.98 466.43 177.816 464.828 175.828Z" fill="#396CAA"/>
<path d="M413.722 151.299C413.664 151.014 413.611 150.73 413.56 150.448L408.655 153.327C410.117 153.198 411.501 152.976 412.966 152.984C413.869 152.989 413.971 152.514 413.722 151.299Z" fill="#396CAA"/>
<path d="M436.383 184.386C435.608 183.933 434.836 183.46 434.066 182.967C433.399 182.541 433.165 182.627 432.967 183.18C432.406 184.744 431.786 186.25 431.151 187.876L436.803 184.631V184.629C436.732 184.589 436.661 184.549 436.59 184.506C436.521 184.469 436.452 184.426 436.383 184.386Z" fill="#396CAA"/>
<path d="M461.126 172.327C462.443 172.785 463.765 173.282 465.109 173.786C465.563 173.957 466.021 174.129 466.482 174.302C466.237 172.556 466.005 170.903 465.774 169.266C465.73 168.951 465.685 168.633 465.641 168.318C465.547 167.656 465.451 166.996 465.358 166.33C465.358 166.327 465.358 166.327 465.358 166.325C465.211 165.297 465.062 164.259 464.908 163.198C464.866 162.895 464.822 162.593 464.777 162.289C462.915 161.592 461.175 160.961 459.423 160.261C459.134 160.146 458.64 159.737 458.522 159.441C457.483 156.789 456.51 154.13 455.465 151.334C456.666 150.381 457.972 149.346 459.312 148.284C456.766 144.372 454.307 140.596 451.809 136.758C450.631 137.682 449.488 138.53 448.399 139.459C447.992 139.805 447.69 139.759 447.038 139.057C445.529 137.433 443.976 135.871 442.398 134.43C441.69 133.783 441.492 133.368 441.512 132.577C441.564 130.622 441.528 128.614 441.528 126.613C441.07 126.349 440.611 126.084 440.157 125.822C439.147 125.24 438.143 124.663 437.144 124.085C435.34 123.046 433.546 122.011 431.728 120.964C431.728 121.904 431.724 122.824 431.721 123.737C431.719 124.84 431.721 125.933 431.744 127.037C431.759 127.768 431.57 127.935 430.943 127.793C429.394 127.437 427.852 127.142 426.379 127.053C425.609 127.006 425.226 126.7 424.723 125.667C424.596 125.407 424.469 125.147 424.34 124.887C424.267 124.741 424.193 124.594 424.12 124.447C424.064 124.338 424.011 124.227 423.955 124.119C423.853 123.914 423.748 123.71 423.644 123.505C423.619 123.457 423.595 123.408 423.568 123.359C423.441 123.112 423.314 122.866 423.185 122.617C423.185 122.617 423.185 122.615 423.183 122.615C422.607 121.5 422.019 120.38 421.436 119.25C420.911 119.452 420.388 119.652 419.87 119.851C417.874 120.62 415.916 121.373 413.928 122.137C415.132 124.472 416.252 126.691 417.42 128.89C417.54 129.119 417.625 129.307 417.674 129.472C417.783 129.841 417.711 130.087 417.487 130.363C416.57 131.487 415.695 132.671 414.914 133.963C414.896 133.992 414.881 134.017 414.863 134.041C414.859 134.048 414.852 134.057 414.848 134.063C414.834 134.081 414.823 134.097 414.81 134.112C414.805 134.119 414.799 134.125 414.794 134.132C414.779 134.152 414.761 134.17 414.745 134.185C414.741 134.19 414.734 134.194 414.73 134.201C414.718 134.212 414.707 134.221 414.694 134.232C414.687 134.239 414.678 134.243 414.672 134.25C414.663 134.256 414.652 134.263 414.643 134.27C414.634 134.274 414.627 134.281 414.618 134.283C414.603 134.292 414.587 134.299 414.572 134.303C414.563 134.308 414.552 134.31 414.54 134.312C414.532 134.314 414.525 134.316 414.516 134.316C414.505 134.319 414.494 134.321 414.483 134.321C414.476 134.321 414.469 134.321 414.463 134.321C414.436 134.321 414.407 134.321 414.378 134.316H414.376C414.36 134.314 414.347 134.31 414.331 134.305C414.327 134.303 414.32 134.303 414.316 134.301C414.3 134.296 414.285 134.292 414.269 134.285C414.267 134.285 414.267 134.283 414.265 134.283C414.227 134.27 414.189 134.252 414.149 134.23C414.026 134.165 413.888 134.068 413.728 133.939C413.403 133.679 413.076 133.421 412.751 133.164C411.341 132.055 409.919 130.971 408.457 129.841C407.88 133.252 407.324 136.538 406.759 139.883C408.561 141.291 410.27 142.677 411.993 143.95C412.685 144.463 412.869 144.899 412.952 145.689C413.114 147.258 413.279 148.839 413.564 150.45C413.615 150.732 413.666 151.016 413.726 151.3C413.975 152.518 413.871 152.991 412.967 152.986C411.503 152.977 410.121 153.2 408.657 153.328C410.324 157.584 411.926 161.68 413.559 165.854C415.399 165.703 417.144 165.561 418.813 165.423C420.573 168.133 422.273 170.75 424.004 173.413C423.341 175.133 422.658 176.901 421.946 178.744C425.055 181.83 428.085 184.835 431.152 187.878C431.786 186.252 432.407 184.746 432.968 183.182C433.166 182.629 433.399 182.543 434.067 182.969C434.837 183.462 435.611 183.938 436.383 184.389C436.452 184.429 436.521 184.469 436.59 184.509C436.661 184.549 436.733 184.589 436.804 184.631C437.545 185.055 438.286 185.459 439.022 185.832C439.783 186.219 440.084 186.597 440.317 187.545C440.858 189.742 441.499 191.959 442.104 194.191C445.222 194.689 448.235 195.168 451.299 195.657C450.903 194.176 450.511 192.73 450.133 191.301C450.053 190.995 449.973 190.69 449.893 190.386C449.83 190.146 449.766 189.904 449.703 189.664C449.61 189.302 449.517 188.942 449.425 188.58C449.343 188.258 449.405 187.778 449.574 187.714C451.168 187.112 452.801 186.585 454.485 186.017C454.748 186.341 455.017 186.672 455.287 187.005C456.684 188.729 458.157 190.55 459.686 192.436C460.959 190.648 462.211 188.887 463.471 187.116C463.84 186.597 464.212 186.077 464.584 185.555C463.769 184.544 462.973 183.556 462.198 182.594C461.232 181.397 460.3 180.239 459.412 179.138C459.73 176.847 460.011 174.662 460.362 172.531C460.405 172.289 460.836 172.225 461.126 172.327ZM447.881 170.152C445.86 173.769 441.588 174.604 436.632 171.761C429.759 167.818 424.1 158.106 424.084 150.221C424.073 144.77 426.788 141.556 430.749 141.411C432.5 141.349 434.496 141.887 436.608 143.099C443.497 147.056 449.116 156.72 449.123 164.624C449.125 166.865 448.68 168.724 447.881 170.152Z" fill="#173D7A"/>
<path d="M452.479 106.289C456.207 108.428 459.422 107.799 460.94 105.08C459.631 105.12 458.138 104.711 456.552 103.803C451.382 100.837 447.128 93.5339 447.114 87.6031C447.112 85.9305 447.45 84.5355 448.054 83.4648C445.074 83.5715 443.033 85.9904 443.04 90.0887C443.056 96.0195 447.31 103.325 452.479 106.289Z" fill="#396CAA"/>
<path d="M452.428 115.922C452.435 115.907 452.439 115.891 452.446 115.878C452.395 115.849 452.343 115.818 452.29 115.787C452.337 115.831 452.383 115.875 452.428 115.922Z" fill="#396CAA"/>
<path d="M474.082 102.205C474.082 102.202 474.082 102.202 474.082 102.199C474.079 102.202 474.082 102.202 474.082 102.205Z" fill="#396CAA"/>
<path d="M473.646 99.165C473.68 99.3938 473.711 99.6226 473.744 99.8492C473.711 99.6204 473.68 99.3938 473.646 99.165Z" fill="#396CAA"/>
<path d="M455.13 71.7363C455.473 71.934 455.815 72.1317 456.16 72.3316C455.817 72.1317 455.473 71.934 455.13 71.7363Z" fill="#396CAA"/>
<path d="M478.368 101.21C478.157 99.7267 477.943 98.2406 477.718 96.6769C476.319 96.1526 475.008 95.6773 473.693 95.1508C473.475 95.0642 473.103 94.7577 473.016 94.5333C472.235 92.5386 471.503 90.5395 470.718 88.4359C471.621 87.7206 472.605 86.941 473.61 86.1413C471.695 83.2003 469.848 80.3593 467.967 77.4739C467.082 78.1691 466.223 78.8066 465.404 79.5041C465.099 79.764 464.87 79.7285 464.38 79.202C463.245 77.9803 462.077 76.8075 460.891 75.7213C460.359 75.2348 460.21 74.9238 460.226 74.3285C460.263 72.858 460.239 71.3498 460.239 69.8438C457.74 68.4044 455.335 67.0161 452.869 65.5967L448.797 68.0845C450.163 68.8731 451.514 69.6505 452.869 70.4324C453.621 70.8656 454.376 71.3009 455.134 71.7385C455.477 71.9362 455.82 72.1339 456.165 72.3338C456.165 73.8399 456.189 75.3481 456.151 76.8186C456.136 77.4139 456.285 77.7249 456.817 78.2113C458.005 79.2953 459.171 80.4704 460.306 81.6921C460.795 82.2185 461.025 82.2541 461.329 81.9942C462.148 81.2967 463.009 80.657 463.893 79.9639C465.773 82.8516 467.62 85.6904 469.536 88.6314C468.528 89.4288 467.544 90.2085 466.643 90.926C467.429 93.0295 468.163 95.0287 468.942 97.0234C469.029 97.2477 469.403 97.5543 469.618 97.6409C470.933 98.1673 472.244 98.6427 473.644 99.1669C473.677 99.3957 473.708 99.6245 473.742 99.8511C473.855 100.648 473.969 101.43 474.08 102.203C474.08 102.206 474.08 102.206 474.08 102.208C474.151 102.708 474.222 103.205 474.294 103.703C474.327 103.94 474.36 104.178 474.394 104.416C474.567 105.649 474.741 106.89 474.926 108.203L478.998 105.715C478.78 104.145 478.575 102.679 478.368 101.21Z" fill="#396CAA"/>
<path d="M435.983 78.0586C435.976 78.0632 435.971 78.0679 435.964 78.0725C435.971 78.0679 435.976 78.0632 435.983 78.0586Z" fill="#396CAA"/>
<path d="M435.889 78.1113C435.882 78.1136 435.873 78.116 435.866 78.1183C435.873 78.116 435.88 78.116 435.889 78.1113Z" fill="#396CAA"/>
<path d="M435.942 78.0874C435.935 78.092 435.931 78.0944 435.924 78.099C435.931 78.0944 435.935 78.0897 435.942 78.0874Z" fill="#396CAA"/>
<path d="M436.021 78.0249C436.016 78.0298 436.011 78.0323 436.009 78.0372C436.011 78.0323 436.016 78.0298 436.021 78.0249Z" fill="#396CAA"/>
<path d="M436.07 77.9697C436.065 77.9744 436.06 77.9813 436.056 77.986C436.06 77.9813 436.065 77.9744 436.07 77.9697Z" fill="#396CAA"/>
<path d="M436.109 77.916C436.105 77.923 436.1 77.9276 436.098 77.9345C436.1 77.9276 436.105 77.9206 436.109 77.916Z" fill="#396CAA"/>
<path d="M435.847 78.1226C435.838 78.1249 435.828 78.1249 435.821 78.1273C435.831 78.1249 435.84 78.1249 435.847 78.1226Z" fill="#396CAA"/>
<path d="M435.744 78.1226C435.767 78.127 435.787 78.127 435.807 78.127C435.787 78.127 435.767 78.127 435.744 78.1226Z" fill="#396CAA"/>
<path d="M435.568 78.0586C435.6 78.0742 435.629 78.0876 435.656 78.0988C435.629 78.0899 435.6 78.0765 435.568 78.0586Z" fill="#396CAA"/>
<path d="M435.744 78.1233C435.732 78.121 435.72 78.1186 435.708 78.1162C435.72 78.1186 435.732 78.121 435.744 78.1233Z" fill="#396CAA"/>
<path d="M435.697 78.1124C435.685 78.1077 435.671 78.1053 435.659 78.1006C435.673 78.1053 435.685 78.11 435.697 78.1124Z" fill="#396CAA"/>
<path d="M435.252 77.8405C435.375 77.9382 435.477 78.0115 435.568 78.0604C435.599 78.076 435.628 78.0893 435.655 78.1004C435.655 78.1004 435.657 78.1004 435.657 78.1026C435.668 78.107 435.682 78.1115 435.693 78.1137C435.697 78.1159 435.702 78.1159 435.706 78.1182C435.717 78.1204 435.729 78.1248 435.74 78.1248H435.742C435.764 78.1293 435.784 78.1293 435.804 78.1293C435.809 78.1293 435.815 78.1293 435.82 78.1293C435.829 78.1293 435.838 78.127 435.844 78.1248C435.851 78.1248 435.855 78.1226 435.862 78.1204C435.869 78.1182 435.878 78.1159 435.884 78.1137C435.895 78.1093 435.909 78.1048 435.92 78.0982C435.927 78.0959 435.933 78.0915 435.938 78.0871C435.944 78.0826 435.953 78.0782 435.96 78.0737C435.967 78.0693 435.971 78.0648 435.978 78.0604C435.987 78.0537 435.996 78.0449 436.004 78.0382C436.009 78.0337 436.013 78.0315 436.016 78.0271C436.029 78.0138 436.04 78.0004 436.051 77.9871C436.056 77.9827 436.06 77.976 436.065 77.9715C436.073 77.9604 436.082 77.9471 436.091 77.9338C436.096 77.9293 436.1 77.9227 436.102 77.916C436.116 77.8982 436.127 77.8783 436.14 77.856C436.725 76.8853 437.386 75.9946 438.074 75.1483C438.243 74.9417 438.296 74.7574 438.214 74.4797C437.275 73.7467 436.325 73.0225 435.352 72.2695L431.28 74.7574C432.38 75.6081 433.45 76.4211 434.511 77.2563C434.763 77.4495 435.008 77.645 435.252 77.8405Z" fill="#396CAA"/>
<path d="M443.069 70.7017C443.027 70.6195 442.987 70.5373 442.944 70.4551C442.987 70.5373 443.027 70.6195 443.069 70.7017Z" fill="#396CAA"/>
<path d="M443.523 71.6186C443.427 71.4232 443.331 71.2277 443.233 71.0322C443.331 71.2277 443.427 71.4232 443.523 71.6186Z" fill="#396CAA"/>
<path d="M442.708 69.9955C442.69 69.9575 442.67 69.9218 442.652 69.8838C442.673 69.9218 442.69 69.9575 442.708 69.9955Z" fill="#396CAA"/>
<path d="M441.05 66.792C441.489 67.6427 441.932 68.4846 442.366 69.3243C442.366 69.3243 442.366 69.3265 442.368 69.3265C442.463 69.5131 442.559 69.6974 442.655 69.884C442.673 69.9218 442.693 69.9573 442.71 69.9951C442.788 70.1483 442.866 70.3016 442.944 70.4549C442.986 70.5371 443.026 70.6193 443.069 70.7015C443.124 70.8125 443.18 70.9214 443.233 71.0324C443.331 71.2279 443.427 71.4234 443.523 71.6188C443.901 72.3963 444.188 72.6251 444.769 72.6628C445.877 72.7317 447.036 72.9516 448.2 73.2204C448.672 73.3292 448.814 73.2026 448.803 72.654C448.785 71.8232 448.785 71.0013 448.787 70.1728C448.245 70.1261 447.962 69.8862 447.597 69.1354C446.814 67.525 445.964 65.9346 445.125 64.3086C443.209 65.0461 441.36 65.7569 439.479 66.481L435.407 68.9688C436.9 68.3935 438.373 67.8271 439.875 67.2496C440.263 67.0963 440.654 66.9453 441.05 66.792Z" fill="#396CAA"/>
<path d="M462.311 119.751C462.357 119.931 462.404 120.114 462.453 120.296C462.404 120.114 462.357 119.934 462.311 119.751Z" fill="#396CAA"/>
<path d="M462.213 118.288C462.084 118.337 462.04 118.697 462.1 118.939C462.169 119.21 462.238 119.481 462.309 119.754C462.356 119.934 462.402 120.116 462.451 120.298C462.511 120.527 462.571 120.756 462.631 120.987C462.916 122.062 463.21 123.148 463.508 124.263L467.58 121.775C467.213 120.403 466.853 119.072 466.508 117.755C466.305 117.504 466.103 117.255 465.905 117.011C464.641 117.439 463.412 117.835 462.213 118.288Z" fill="#396CAA"/>
<path d="M471.708 114.436C470.982 113.536 470.281 112.666 469.611 111.835C470.279 112.666 470.982 113.536 471.708 114.436Z" fill="#396CAA"/>
<path d="M473.686 109.35C473.757 108.83 473.829 108.319 473.898 107.813C472.887 107.433 471.893 107.06 470.902 106.715C470.684 106.64 470.359 106.686 470.33 106.869C470.066 108.47 469.854 110.116 469.616 111.838C470.284 112.666 470.985 113.537 471.712 114.439C472.295 115.163 472.894 115.907 473.506 116.667C473.226 117.06 472.947 117.451 472.669 117.842C471.721 119.172 470.778 120.498 469.821 121.842L473.893 119.354C475.13 117.615 476.345 115.909 477.576 114.179C476.201 112.471 474.89 110.845 473.686 109.35Z" fill="#396CAA"/>
<path d="M435.25 90.8995C435.206 90.6863 435.166 90.473 435.128 90.2598L431.438 92.4255C432.538 92.3278 433.579 92.1612 434.678 92.1678C435.359 92.1723 435.437 91.8147 435.25 90.8995Z" fill="#396CAA"/>
<path d="M452.291 115.787C451.71 115.447 451.127 115.089 450.549 114.718C450.046 114.396 449.87 114.463 449.721 114.878C449.3 116.055 448.833 117.188 448.354 118.41L452.607 115.969V115.967C452.553 115.935 452.5 115.907 452.447 115.876C452.395 115.847 452.344 115.816 452.291 115.787Z" fill="#396CAA"/>
<path d="M470.9 106.715C471.89 107.059 472.885 107.432 473.895 107.812C474.238 107.941 474.581 108.07 474.928 108.199C474.743 106.886 474.57 105.644 474.396 104.411C474.363 104.174 474.329 103.936 474.296 103.698C474.225 103.201 474.153 102.703 474.082 102.203C474.082 102.201 474.082 102.201 474.082 102.199C473.971 101.426 473.86 100.644 473.744 99.8467C473.711 99.6201 473.68 99.3936 473.646 99.1626C472.246 98.6383 470.936 98.163 469.621 97.6365C469.403 97.5499 469.031 97.2434 468.944 97.019C468.163 95.0243 467.431 93.0252 466.646 90.9216C467.549 90.2063 468.533 89.4267 469.538 88.627C467.622 85.686 465.775 82.845 463.895 79.9596C463.01 80.6548 462.151 81.2923 461.332 81.9898C461.027 82.2497 460.798 82.2142 460.308 81.6877C459.173 80.466 458.005 79.2932 456.819 78.207C456.287 77.7205 456.138 77.4095 456.154 76.8142C456.191 75.3438 456.167 73.8355 456.167 72.3295C455.822 72.1296 455.477 71.9319 455.137 71.7342C454.376 71.2966 453.621 70.8612 452.871 70.4281C451.514 69.6462 450.166 68.8687 448.799 68.0802C448.799 68.7865 448.795 69.4796 448.793 70.1659C448.79 70.9945 448.793 71.8186 448.808 72.6471C448.819 73.1958 448.677 73.3224 448.205 73.2135C447.041 72.9448 445.88 72.7249 444.774 72.656C444.195 72.6205 443.906 72.3895 443.528 71.612C443.432 71.4165 443.336 71.2211 443.238 71.0256C443.183 70.9145 443.127 70.8057 443.074 70.6946C443.031 70.6124 442.991 70.5302 442.949 70.448C442.871 70.2948 442.793 70.1415 442.715 69.9882C442.698 69.9505 442.678 69.9149 442.66 69.8772C442.564 69.6906 442.468 69.5062 442.373 69.3196C442.373 69.3196 442.373 69.3174 442.371 69.3174C441.937 68.4778 441.494 67.6359 441.055 66.7852C440.659 66.9362 440.268 67.0873 439.878 67.2383C438.376 67.8158 436.903 68.3823 435.41 68.9576C436.316 70.7146 437.157 72.3828 438.036 74.0354C438.127 74.2065 438.189 74.3486 438.225 74.473C438.307 74.7507 438.254 74.935 438.085 75.1416C437.395 75.9879 436.736 76.8787 436.151 77.8494C436.138 77.8716 436.127 77.8893 436.113 77.9093C436.109 77.916 436.104 77.9204 436.102 77.9271C436.093 77.9404 436.084 77.9515 436.075 77.9649C436.071 77.9693 436.066 77.976 436.062 77.9804C436.051 77.996 436.038 78.0093 436.026 78.0204C436.022 78.0248 436.018 78.0271 436.015 78.0315C436.006 78.0404 435.997 78.0471 435.989 78.0537C435.982 78.0582 435.977 78.0626 435.971 78.067C435.964 78.0715 435.955 78.0759 435.949 78.0804C435.942 78.0848 435.937 78.087 435.931 78.0915C435.92 78.0981 435.906 78.1026 435.895 78.107C435.888 78.1092 435.88 78.1115 435.873 78.1137C435.866 78.1159 435.862 78.1159 435.855 78.1181C435.846 78.1204 435.837 78.1204 435.831 78.1226C435.826 78.1226 435.819 78.1226 435.815 78.1226C435.795 78.1226 435.773 78.1226 435.753 78.1181H435.75C435.739 78.1159 435.728 78.1137 435.717 78.1115C435.713 78.1115 435.708 78.1092 435.704 78.107C435.693 78.1026 435.679 78.1004 435.668 78.0959C435.668 78.0959 435.666 78.0959 435.666 78.0937C435.637 78.0826 435.608 78.0693 435.579 78.0537C435.488 78.0049 435.383 77.9315 435.263 77.8338C435.018 77.6383 434.774 77.4429 434.529 77.2496C433.467 76.4144 432.397 75.6014 431.298 74.7507C430.864 77.3162 430.446 79.7863 430.021 82.303C431.376 83.3626 432.662 84.4044 433.957 85.3617C434.478 85.746 434.616 86.0748 434.678 86.6701C434.8 87.8496 434.923 89.0379 435.139 90.2508C435.176 90.464 435.216 90.6773 435.261 90.8905C435.448 91.8057 435.37 92.1633 434.691 92.1589C433.59 92.1522 432.551 92.3188 431.451 92.4165C432.704 95.6174 433.91 98.6983 435.139 101.837C436.523 101.724 437.836 101.615 439.088 101.513C440.412 103.55 441.692 105.518 442.994 107.521C442.495 108.814 441.981 110.145 441.447 111.531C443.786 113.852 446.064 116.111 448.372 118.401C448.848 117.179 449.315 116.047 449.738 114.869C449.887 114.454 450.063 114.389 450.566 114.709C451.145 115.08 451.728 115.438 452.308 115.778C452.36 115.809 452.411 115.838 452.464 115.869C452.518 115.9 452.571 115.929 452.624 115.96C453.181 116.28 453.739 116.584 454.293 116.864C454.865 117.155 455.092 117.439 455.268 118.152C455.675 119.805 456.156 121.471 456.612 123.15C458.955 123.523 461.223 123.885 463.528 124.252C463.23 123.137 462.936 122.051 462.651 120.976C462.591 120.745 462.531 120.516 462.471 120.287C462.424 120.105 462.375 119.925 462.329 119.743C462.257 119.472 462.188 119.199 462.119 118.928C462.057 118.685 462.104 118.326 462.233 118.277C463.432 117.824 464.658 117.428 465.927 116.999C466.125 117.244 466.327 117.493 466.53 117.744C467.58 119.041 468.688 120.409 469.839 121.829C470.796 120.485 471.739 119.159 472.687 117.828C472.965 117.437 473.243 117.046 473.524 116.653C472.912 115.893 472.313 115.149 471.73 114.425C471.005 113.525 470.304 112.655 469.634 111.824C469.872 110.102 470.084 108.456 470.348 106.855C470.357 106.686 470.682 106.639 470.9 106.715ZM460.94 105.08C459.42 107.799 456.207 108.428 452.48 106.288C447.311 103.323 443.056 96.0194 443.043 90.0886C443.034 85.9904 445.076 83.5714 448.056 83.4648C449.373 83.4181 450.875 83.8224 452.462 84.7331C457.642 87.7096 461.868 94.9777 461.875 100.922C461.875 102.608 461.539 104.007 460.94 105.08Z" fill="#173D7A"/>
<path d="M76.0605 310.033C76.016 311.197 75.7311 312.361 75.1993 313.496C74.3159 315.386 72.756 317.197 70.5197 318.798C70.2393 318.998 69.9478 319.196 69.6474 319.391C69.6385 319.396 69.6296 319.402 69.6229 319.407C69.4827 319.498 69.3381 319.587 69.1934 319.676C69.1689 319.691 69.1445 319.704 69.12 319.72C68.9753 319.809 68.8285 319.896 68.6772 319.982C58.8728 325.633 43.0337 325.666 33.2983 320.055C33.1626 319.978 33.029 319.898 32.8955 319.818C32.8666 319.8 32.8377 319.782 32.8087 319.764C32.6752 319.684 32.5439 319.602 32.4171 319.52C32.4171 319.52 32.4149 319.52 32.4149 319.518C32.2836 319.433 32.1545 319.349 32.0277 319.265C32.0099 319.254 31.9921 319.24 31.9743 319.229C31.8452 319.142 31.7184 319.054 31.5915 318.967C29.3507 317.381 27.7864 315.582 26.903 313.696C26.36 312.541 26.073 311.352 26.0396 310.162L26.0352 318.545L26.1041 318.549C26.5314 321.852 28.928 325.08 33.2961 327.597C43.0292 333.208 58.8684 333.174 68.6749 327.523C73.3412 324.833 75.7979 321.357 76.0449 317.847L76.0649 317.839V310.031L76.0605 310.033Z" fill="#396CAA"/>
<path d="M31.5915 318.97C31.7162 319.058 31.8452 319.145 31.9743 319.234C31.9921 319.245 32.0099 319.258 32.0277 319.269C32.1545 319.354 32.2836 319.438 32.4149 319.523C32.4149 319.523 32.4171 319.523 32.4171 319.525C32.5462 319.607 32.6774 319.689 32.8087 319.769C32.8377 319.787 32.8666 319.805 32.8955 319.823C33.0268 319.903 33.1603 319.982 33.2983 320.06C43.0314 325.671 58.8706 325.638 68.6772 319.987C68.8262 319.9 68.9753 319.814 69.12 319.725C69.1444 319.709 69.1689 319.696 69.1934 319.68C69.3403 319.592 69.4827 319.503 69.6229 319.412C69.6318 319.407 69.6407 319.401 69.6473 319.396C69.95 319.203 70.2393 319.005 70.5196 318.803C72.7538 317.201 74.3159 315.391 75.1993 313.501C75.7289 312.366 76.0159 311.204 76.0604 310.038C76.2029 306.262 73.7863 302.47 68.804 299.598C59.0709 293.987 43.2317 294.02 33.4251 299.671C28.3961 302.57 25.9328 306.382 26.0374 310.164C26.0708 311.355 26.3578 312.543 26.9008 313.698C27.7864 315.584 29.3485 317.384 31.5915 318.97Z" fill="#D4ECFF"/>
<path d="M65.344 306.888C65.3173 307.576 65.1481 308.263 64.8366 308.934C64.3137 310.051 63.3924 311.119 62.0729 312.066C61.9082 312.183 61.7346 312.301 61.5566 312.416C61.5522 312.419 61.5455 312.423 61.541 312.425C61.4587 312.479 61.3719 312.532 61.2874 312.585C61.274 312.594 61.2584 312.603 61.2451 312.612C61.1583 312.663 61.0715 312.716 60.9825 312.767C55.1903 316.106 45.8332 316.126 40.0832 312.812C40.0031 312.765 39.923 312.719 39.8451 312.672C39.8273 312.661 39.8117 312.652 39.7939 312.641C39.716 312.594 39.6382 312.545 39.5625 312.496C39.5625 312.496 39.5625 312.496 39.5603 312.496C39.4824 312.448 39.4067 312.396 39.3311 312.348C39.3199 312.341 39.3088 312.334 39.2999 312.325C39.2243 312.274 39.1486 312.223 39.0752 312.17C37.7512 311.233 36.8277 310.171 36.3048 309.056C35.9843 308.374 35.8152 307.672 35.7952 306.968L35.793 311.919L35.8352 311.921C36.0867 313.871 37.5019 315.78 40.0832 317.266C45.8332 320.58 55.1903 320.56 60.9825 317.221C63.7396 315.633 65.1904 313.578 65.3351 311.506L65.3484 311.501V306.89L65.344 306.888Z" fill="#396CAA"/>
<path d="M39.0749 312.166C39.1483 312.219 39.224 312.27 39.2996 312.321C39.3107 312.328 39.3219 312.335 39.3308 312.343C39.4064 312.394 39.4821 312.443 39.56 312.492C39.56 312.492 39.56 312.492 39.5622 312.492C39.6379 312.541 39.7157 312.588 39.7936 312.637C39.8114 312.648 39.827 312.657 39.8448 312.668C39.9227 312.714 40.0028 312.761 40.0829 312.808C45.8329 316.122 55.19 316.102 60.9822 312.763C61.0712 312.712 61.158 312.661 61.2448 312.608C61.2582 312.599 61.2737 312.59 61.2871 312.581C61.3739 312.528 61.4584 312.474 61.5408 312.421C61.5452 312.419 61.5519 312.414 61.5563 312.412C61.7344 312.297 61.9057 312.181 62.0726 312.061C63.3922 311.115 64.3156 310.047 64.8363 308.929C65.1501 308.258 65.3192 307.572 65.3437 306.884C65.4282 304.653 63.9996 302.412 61.0579 300.717C55.3079 297.403 45.9508 297.423 40.1586 300.762C37.1879 302.474 35.7326 304.727 35.7949 306.961C35.8149 307.665 35.984 308.367 36.3045 309.049C36.8274 310.167 37.7509 311.228 39.0749 312.166Z" fill="#173D7A"/>
<path d="M48.1098 307.508C48.1254 307.519 48.141 307.53 48.1588 307.541C48.161 307.543 48.1632 307.543 48.1655 307.545C48.181 307.556 48.1988 307.568 48.2144 307.576C48.23 307.588 48.2478 307.596 48.2634 307.608C48.2678 307.61 48.2701 307.612 48.2745 307.614C48.2923 307.625 48.3079 307.634 48.3257 307.645C49.5562 308.354 51.5589 308.349 52.7984 307.636C52.8184 307.625 52.8362 307.614 52.854 307.603C52.8562 307.601 52.8607 307.599 52.8629 307.596C52.8807 307.585 52.8985 307.574 52.9163 307.563L52.9186 307.561C52.9564 307.536 52.9942 307.512 53.0298 307.485C53.3124 307.283 53.5105 307.054 53.6217 306.815C53.6885 306.67 53.7241 306.524 53.7308 306.377C53.7486 305.899 53.4437 305.42 52.814 305.057C51.5834 304.349 49.5807 304.353 48.3413 305.066C47.7048 305.433 47.3933 305.915 47.4067 306.392C47.4111 306.544 47.4467 306.692 47.5157 306.839C47.6292 307.079 47.8272 307.308 48.1098 307.508Z" fill="#FF2C9C"/>
<path d="M392.742 129.763L171.773 1.20413C165.951 -2.1811 152.907 1.71281 152.907 11.1066L158.644 217.943L389.05 358.502C393.361 361.132 399.191 358.788 400.083 353.826C400.205 353.148 400.268 352.451 400.268 351.736V142.84C400.27 137.453 397.404 132.475 392.742 129.763Z" fill="#396CAA"/>
<path d="M386.843 133.251L165.98 4.75393C160.159 1.36647 152.852 5.55803 152.852 12.2841V219.068C152.852 220.569 153.65 221.958 154.95 222.715L388.118 358.371C390.937 360.012 394.476 357.982 394.476 354.724V146.512C394.478 141.05 391.569 136.001 386.843 133.251Z" fill="#173D7A"/>
<path d="M164.315 214.873L287.475 286.539L298.966 293.227L383.006 342.139V145.245L164.315 17.9634V214.873Z" fill="#1D4682"/>
<path d="M2.41657 326.04C0.0177781 327.422 0.00665206 329.658 2.38542 331.038L234.97 465.963C237.354 467.345 241.221 467.345 243.618 465.963L392.241 380.306C394.635 378.926 394.65 376.687 392.27 375.306L159.684 240.383C157.306 239.004 153.436 239.003 151.039 240.385L2.41657 326.04Z" fill="#6A9CCE"/>
<path d="M393.438 362.504C393.44 363.415 392.837 364.328 391.633 365.021L243.01 450.678C240.614 452.06 236.744 452.06 234.363 450.678L1.77573 315.755C0.594135 315.069 0.00222523 314.174 0 313.276L0.0244775 321.491C0.0267027 322.388 0.618613 323.285 1.80021 323.97L234.385 458.895C236.769 460.276 240.634 460.276 243.033 458.895L391.655 373.24C392.861 372.545 393.462 371.634 393.46 370.723L393.438 362.504Z" fill="#396CAA"/>
<path d="M1.8072 310.755C-0.591597 312.137 -0.602723 314.374 1.77604 315.753L234.361 450.678C236.744 452.06 240.612 452.06 243.008 450.678L391.631 365.021C394.026 363.642 394.041 361.403 391.66 360.021L159.075 225.098C156.696 223.719 152.827 223.719 150.43 225.1L1.8072 310.755Z" fill="#D4ECFF"/>
<path d="M146.111 245.423L159.049 252.926L172.057 245.429L159.122 237.926L146.111 245.423Z" fill="#396CAA"/>
<path d="M162.351 254.845L175.288 262.349L188.297 254.85L175.361 247.346L162.351 254.845Z" fill="#396CAA"/>
<path d="M178.593 264.263L191.528 271.769L204.539 264.27L191.601 256.767L178.593 264.263Z" fill="#396CAA"/>
<path d="M194.844 273.693L207.768 281.19L220.777 273.693L207.852 266.194L194.844 273.693Z" fill="#396CAA"/>
<path d="M211.083 283.114L224.007 290.61L237.016 283.114L224.092 275.617L211.083 283.114Z" fill="#396CAA"/>
<path d="M227.323 292.534L240.258 300.04L253.269 292.541L240.332 285.037L227.323 292.534Z" fill="#396CAA"/>
<path d="M243.562 301.954L256.5 309.46L269.509 301.961L256.571 294.458L243.562 301.954Z" fill="#396CAA"/>
<path d="M259.803 311.377L272.738 318.88L285.749 311.384L272.811 303.878L259.803 311.377Z" fill="#396CAA"/>
<path d="M276.042 320.797L288.979 328.3L301.988 320.804L289.053 313.298L276.042 320.797Z" fill="#396CAA"/>
<path d="M292.295 330.224L305.219 337.723L318.228 330.224L305.304 322.728L292.295 330.224Z" fill="#396CAA"/>
<path d="M308.535 339.645L321.459 347.144L334.47 339.645L321.544 332.148L308.535 339.645Z" fill="#396CAA"/>
<path d="M324.774 349.067L337.699 356.564L350.709 349.067L337.783 341.568L324.774 349.067Z" fill="#396CAA"/>
<path d="M341.015 358.488L353.95 365.992L366.961 358.495L354.023 350.989L341.015 358.488Z" fill="#396CAA"/>
<path d="M130.579 255.214L156.899 270.481L169.91 262.984L143.59 247.715L130.579 255.214Z" fill="#396CAA"/>
<path d="M159.834 272.185L172.771 279.689L185.78 272.19L172.845 264.686L159.834 272.185Z" fill="#396CAA"/>
<path d="M175.326 281.172L188.264 288.676L201.272 281.179L188.337 273.673L175.326 281.172Z" fill="#396CAA"/>
<path d="M190.818 290.157L203.756 297.663L216.765 290.164L203.829 282.66L190.818 290.157Z" fill="#396CAA"/>
<path d="M206.323 299.153L219.247 306.65L232.256 299.151L219.332 291.654L206.323 299.153Z" fill="#396CAA"/>
<path d="M221.813 308.138L234.74 315.637L247.748 308.138L234.824 300.639L221.813 308.138Z" fill="#396CAA"/>
<path d="M237.306 317.126L250.232 324.625L263.241 317.126L250.317 309.629L237.306 317.126Z" fill="#396CAA"/>
<path d="M252.798 326.113L265.735 333.616L278.746 326.119L265.809 318.614L252.798 326.113Z" fill="#396CAA"/>
<path d="M268.292 335.1L281.227 342.604L294.238 335.107L281.301 327.601L268.292 335.1Z" fill="#396CAA"/>
<path d="M283.784 344.087L296.719 351.593L309.73 344.094L296.795 336.588L283.784 344.087Z" fill="#396CAA"/>
<path d="M299.275 353.075L312.213 360.578L325.222 353.081L312.284 345.576L299.275 353.075Z" fill="#396CAA"/>
<path d="M314.924 362.151L337.761 375.401L350.77 367.902L327.935 354.654L314.924 362.151Z" fill="#396CAA"/>
<path d="M114.312 264.588L147.095 283.607L160.114 276.101L127.332 257.084L114.312 264.588Z" fill="#396CAA"/>
<path d="M150.03 285.308L162.966 292.812L175.988 285.308L163.052 277.805L150.03 285.308Z" fill="#396CAA"/>
<path d="M165.311 294.171L178.235 301.67L191.254 294.167L178.33 286.667L165.311 294.171Z" fill="#396CAA"/>
<path d="M180.578 303.029L193.504 310.528L206.524 303.023L193.6 295.526L180.578 303.029Z" fill="#396CAA"/>
<path d="M195.848 311.888L208.774 319.385L221.794 311.881L208.87 304.382L195.848 311.888Z" fill="#396CAA"/>
<path d="M211.117 320.746L224.041 328.243L237.063 320.738L224.137 313.241L211.117 320.746Z" fill="#396CAA"/>
<path d="M226.387 329.605L239.311 337.102L252.333 329.596L239.406 322.099L226.387 329.605Z" fill="#396CAA"/>
<path d="M241.653 338.461L254.58 345.958L267.602 338.455L254.675 330.956L241.653 338.461Z" fill="#396CAA"/>
<path d="M256.923 347.317L269.86 354.823L282.88 347.317L269.945 339.813L256.923 347.317Z" fill="#396CAA"/>
<path d="M272.192 356.176L285.128 363.679L298.15 356.176L285.214 348.672L272.192 356.176Z" fill="#396CAA"/>
<path d="M288.532 365.654L321.494 384.775L334.514 377.271L301.554 358.15L288.532 365.654Z" fill="#396CAA"/>
<path d="M81.7998 283.326L98.1953 292.838L114.7 283.326L122.121 287.631L134.896 280.272L111.077 266.454L81.7998 283.326Z" fill="#396CAA"/>
<path d="M124.845 289.498L137.769 296.994L150.789 289.491L137.865 281.994L124.845 289.498Z" fill="#396CAA"/>
<path d="M101.444 294.722L114.38 302.227L127.402 294.722L114.464 287.218L101.444 294.722Z" fill="#396CAA"/>
<path d="M64.9707 293.024L97.7527 312.043L110.773 304.537L77.9905 285.521L64.9707 293.024Z" fill="#396CAA"/>
<path d="M140.257 298.44L153.183 305.937L166.203 298.434L153.279 290.935L140.257 298.44Z" fill="#396CAA"/>
<path d="M155.673 307.38L168.608 314.884L181.63 307.38L168.693 299.877L155.673 307.38Z" fill="#396CAA"/>
<path d="M171.087 316.324L184.022 323.827L197.042 316.324L184.107 308.818L171.087 316.324Z" fill="#396CAA"/>
<path d="M186.501 325.264L199.436 332.768L212.456 325.264L199.521 317.761L186.501 325.264Z" fill="#396CAA"/>
<path d="M201.913 334.207L214.851 341.711L227.87 334.207L214.935 326.702L201.913 334.207Z" fill="#396CAA"/>
<path d="M217.341 343.154L230.265 350.651L243.285 343.148L230.361 335.651L217.341 343.154Z" fill="#396CAA"/>
<path d="M232.753 352.097L245.679 359.594L258.699 352.09L245.775 344.591L232.753 352.097Z" fill="#396CAA"/>
<path d="M248.167 361.038L261.104 368.544L274.124 361.038L261.189 353.535L248.167 361.038Z" fill="#396CAA"/>
<path d="M263.581 369.981L276.519 377.484L289.538 369.981L276.603 362.475L263.581 369.981Z" fill="#396CAA"/>
<path d="M279.688 379.324L305.238 394.144L318.257 386.641L292.71 371.82L279.688 379.324Z" fill="#396CAA"/>
<path d="M116.858 303.665L129.794 311.168L142.816 303.665L129.878 296.161L116.858 303.665Z" fill="#396CAA"/>
<path d="M132.284 312.612L145.208 320.111L158.23 312.605L145.304 305.108L132.284 312.612Z" fill="#396CAA"/>
<path d="M147.698 321.555L160.622 329.051L173.642 321.548L160.718 314.049L147.698 321.555Z" fill="#396CAA"/>
<path d="M163.112 330.496L176.048 337.999L189.07 330.496L176.132 322.992L163.112 330.496Z" fill="#396CAA"/>
<path d="M178.526 339.438L191.462 346.942L204.484 339.438L191.546 331.933L178.526 339.438Z" fill="#396CAA"/>
<path d="M193.94 348.379L206.876 355.885L219.898 348.379L206.96 340.875L193.94 348.379Z" fill="#396CAA"/>
<path d="M209.354 357.322L222.29 364.826L235.312 357.322L222.374 349.816L209.354 357.322Z" fill="#396CAA"/>
<path d="M224.78 366.269L237.704 373.768L250.724 366.265L237.8 358.766L224.78 366.269Z" fill="#396CAA"/>
<path d="M240.193 375.212L253.117 382.709L266.139 375.206L253.213 367.707L240.193 375.212Z" fill="#396CAA"/>
<path d="M256.02 384.393L288.98 403.513L302.002 396.01L269.042 376.889L256.02 384.393Z" fill="#396CAA"/>
<path d="M100.699 313.752L113.634 321.257L126.656 313.752L113.719 306.248L100.699 313.752Z" fill="#396CAA"/>
<path d="M116.002 322.627L128.937 330.133L141.957 322.63L129.022 315.124L116.002 322.627Z" fill="#396CAA"/>
<path d="M131.303 331.506L144.229 339.005L157.249 331.5L144.325 324L131.303 331.506Z" fill="#396CAA"/>
<path d="M146.595 340.376L159.532 347.881L172.552 340.376L159.617 332.872L146.595 340.376Z" fill="#396CAA"/>
<path d="M161.842 349.221L220.53 383.266L233.55 375.763L174.862 341.717L161.842 349.221Z" fill="#396CAA"/>
<path d="M223.587 385.039L236.524 392.545L249.544 385.041L236.607 377.536L223.587 385.039Z" fill="#396CAA"/>
<path d="M239.192 394.091L272.152 413.212L285.172 405.708L252.21 386.587L239.192 394.091Z" fill="#396CAA"/>
<path d="M100.292 364.794C100.612 365.292 101.126 365.756 101.816 366.156L155.604 397.145C158.268 398.684 162.587 398.684 165.25 397.145L190.34 382.691C191.03 382.291 191.544 381.827 191.864 381.345C192.828 379.934 192.314 378.269 190.34 377.131L136.552 346.127C133.886 344.605 129.569 344.605 126.921 346.127L101.816 360.596C99.8578 361.733 99.3437 363.381 100.292 364.794Z" fill="url(#paint0_linear_3606:5258)"/>
<path d="M100.291 364.794C100.611 365.292 101.125 365.756 101.815 366.156L155.603 397.145C158.267 398.684 162.586 398.684 165.25 397.145L190.339 382.691C191.029 382.291 191.543 381.827 191.864 381.345C191.543 380.848 191.029 380.383 190.339 379.981L136.551 348.977C133.885 347.439 129.568 347.439 126.92 348.977L101.815 363.446C101.125 363.832 100.611 364.297 100.291 364.794Z" fill="#B3CCEA"/>
<path fill-rule="evenodd" clip-rule="evenodd" d="M184.164 52.5733L225.878 78.0514V75.7012L184.164 50.2231V52.5733Z" fill="#39709E"/>
<path fill-rule="evenodd" clip-rule="evenodd" d="M184.164 58.3838L192.611 63.5416V61.1915L184.164 56.0337V58.3838Z" fill="#39709E"/>
<path fill-rule="evenodd" clip-rule="evenodd" d="M184.164 64.1792L202.22 75.2079V72.8578L184.164 61.8291V64.1792Z" fill="#39709E"/>
<path fill-rule="evenodd" clip-rule="evenodd" d="M188.694 72.7578L203.456 81.7762V79.4239L188.694 70.4077V72.7578Z" fill="#39709E"/>
<path fill-rule="evenodd" clip-rule="evenodd" d="M188.694 78.5532L203.456 87.5716V85.2215L188.694 76.2031V78.5532Z" fill="#39709E"/>
<path fill-rule="evenodd" clip-rule="evenodd" d="M198.941 90.624L213.299 99.3914V97.0413L198.941 88.2739V90.624Z" fill="#39709E"/>
<path fill-rule="evenodd" clip-rule="evenodd" d="M197.889 66.7695L224.643 83.1049V80.7547L197.889 64.4194V66.7695Z" fill="#39709E"/>
<path fill-rule="evenodd" clip-rule="evenodd" d="M228.455 85.4351L241.228 93.2384V90.8883L228.455 83.085V85.4351Z" fill="#39709E"/>
<path fill-rule="evenodd" clip-rule="evenodd" d="M246.081 96.1992L263.327 106.735V104.385L246.081 93.8491V96.1992Z" fill="#39709E"/>
<path fill-rule="evenodd" clip-rule="evenodd" d="M206.447 77.7915L221.501 86.9832V84.6331L206.447 75.4414V77.7915Z" fill="#39709E"/>
<path fill-rule="evenodd" clip-rule="evenodd" d="M207.965 84.5289L216.579 89.7911V87.4365L207.965 82.1743V84.5289Z" fill="#39709E"/>
<path fill-rule="evenodd" clip-rule="evenodd" d="M207.965 90.3238L222.723 99.3422V96.9854L207.965 87.9736V90.3238Z" fill="#39709E"/>
<path fill-rule="evenodd" clip-rule="evenodd" d="M220.68 92.2964L237.084 102.314V99.9643L220.68 89.9463V92.2964Z" fill="#39709E"/>
<path fill-rule="evenodd" clip-rule="evenodd" d="M240.364 104.316L248.969 109.574V107.224L240.364 101.966V104.316Z" fill="#39709E"/>
<path fill-rule="evenodd" clip-rule="evenodd" d="M252.665 111.835L263.326 118.341V115.991L252.665 109.48V111.835Z" fill="#39709E"/>
<path fill-rule="evenodd" clip-rule="evenodd" d="M226.005 101.344L244.65 112.73V110.38L226.005 98.9937V101.344Z" fill="#39709E"/>
<path fill-rule="evenodd" clip-rule="evenodd" d="M247.434 114.434L252.999 117.834V115.478L247.434 112.083V114.434Z" fill="#39709E"/>
<path fill-rule="evenodd" clip-rule="evenodd" d="M217.397 101.897L228.072 108.419V106.069L217.397 99.5469V101.897Z" fill="#39709E"/>
<path fill-rule="evenodd" clip-rule="evenodd" d="M188.694 95.9702L203.456 104.989V102.639L188.694 93.6201V95.9702Z" fill="#39709E"/>
<path fill-rule="evenodd" clip-rule="evenodd" d="M188.694 101.781L203.456 110.797V108.447L188.694 99.4312V101.781Z" fill="#39709E"/>
<path fill-rule="evenodd" clip-rule="evenodd" d="M207.965 107.741L216.579 113.006V110.653L207.965 105.391V107.741Z" fill="#39709E"/>
<path fill-rule="evenodd" clip-rule="evenodd" d="M207.965 113.552L221.256 121.673V119.323L207.965 111.202V113.552Z" fill="#39709E"/>
<path fill-rule="evenodd" clip-rule="evenodd" d="M220.68 115.509L233.292 123.212V120.862L220.68 113.159V115.509Z" fill="#39709E"/>
<path fill-rule="evenodd" clip-rule="evenodd" d="M235.812 124.75L242.443 128.803V126.453L235.812 122.399V124.75Z" fill="#39709E"/>
<path fill-rule="evenodd" clip-rule="evenodd" d="M245.284 130.536L253.486 135.545V133.195L245.284 128.186V130.536Z" fill="#39709E"/>
<path fill-rule="evenodd" clip-rule="evenodd" d="M234.196 129.574L248.97 138.602V136.247L234.196 127.224V129.574Z" fill="#39709E"/>
<path fill-rule="evenodd" clip-rule="evenodd" d="M188.694 107.581L203.456 116.595V114.245L188.694 105.233V107.581Z" fill="#39709E"/>
<path fill-rule="evenodd" clip-rule="evenodd" d="M188.694 113.392L203.456 122.411V120.056L188.694 111.038V113.392Z" fill="#39709E"/>
<path fill-rule="evenodd" clip-rule="evenodd" d="M207.965 119.347L216.579 124.609V122.259L207.965 116.997V119.347Z" fill="#39709E"/>
<path fill-rule="evenodd" clip-rule="evenodd" d="M207.965 125.158L235.026 141.689V139.339L207.965 122.808V125.158Z" fill="#39709E"/>
<path fill-rule="evenodd" clip-rule="evenodd" d="M220.68 127.115L237.084 137.137V134.787L220.68 124.765V127.115Z" fill="#39709E"/>
<path fill-rule="evenodd" clip-rule="evenodd" d="M240.364 139.139L248.969 144.392V142.042L240.364 136.789V139.139Z" fill="#39709E"/>
<path fill-rule="evenodd" clip-rule="evenodd" d="M252.665 146.653L263.326 153.166V150.816L252.665 144.303V146.653Z" fill="#39709E"/>
<path fill-rule="evenodd" clip-rule="evenodd" d="M238.308 143.694L253.486 152.966V150.616L238.308 141.34V143.694Z" fill="#39709E"/>
<path fill-rule="evenodd" clip-rule="evenodd" d="M224.214 123.481L230.5 127.319V124.969L224.214 121.131V123.481Z" fill="#39709E"/>
<path fill-rule="evenodd" clip-rule="evenodd" d="M184.164 122.23L192.611 127.388V125.038L184.164 119.88V122.23Z" fill="#39709E"/>
<path fill-rule="evenodd" clip-rule="evenodd" d="M184.164 128.025L202.22 139.054V136.704L184.164 125.675V128.025Z" fill="#39709E"/>
<path fill-rule="evenodd" clip-rule="evenodd" d="M188.694 136.605L203.456 145.623V143.273L188.694 134.254V136.605Z" fill="#39709E"/>
<path fill-rule="evenodd" clip-rule="evenodd" d="M188.694 142.415L203.456 151.434V149.068L188.694 140.052V142.415Z" fill="#39709E"/>
<path fill-rule="evenodd" clip-rule="evenodd" d="M198.941 154.47L213.299 163.238V160.888L198.941 152.12V154.47Z" fill="#39709E"/>
<path fill-rule="evenodd" clip-rule="evenodd" d="M197.889 130.616L212.731 139.683V137.326L197.889 128.266V130.616Z" fill="#39709E"/>
<path fill-rule="evenodd" clip-rule="evenodd" d="M216.532 142.002L224.031 146.578V144.228L216.532 139.652V142.002Z" fill="#39709E"/>
<path fill-rule="evenodd" clip-rule="evenodd" d="M228.88 149.545L252.723 164.104V161.754L228.88 147.191V149.545Z" fill="#39709E"/>
<path fill-rule="evenodd" clip-rule="evenodd" d="M206.447 141.64L221.501 150.829V148.479L206.447 139.288V141.64Z" fill="#39709E"/>
<path fill-rule="evenodd" clip-rule="evenodd" d="M207.965 148.371L224.781 158.648V156.298L207.965 146.021V148.371Z" fill="#39709E"/>
<path fill-rule="evenodd" clip-rule="evenodd" d="M207.965 154.186L219.445 161.196V158.831L207.965 151.82V154.186Z" fill="#39709E"/>
<path fill-rule="evenodd" clip-rule="evenodd" d="M228.88 161.152L241.381 168.784V166.434L228.88 158.802V161.152Z" fill="#39709E"/>
<path fill-rule="evenodd" clip-rule="evenodd" d="M222.723 163.197L244.65 176.592V174.226L222.723 160.838V163.197Z" fill="#39709E"/>
<path fill-rule="evenodd" clip-rule="evenodd" d="M247.434 178.295L252.999 181.696V179.331L247.434 175.925V178.295Z" fill="#39709E"/>
<path fill-rule="evenodd" clip-rule="evenodd" d="M217.397 165.743L228.072 172.265V169.915L217.397 163.393V165.743Z" fill="#39709E"/>
<path fill-rule="evenodd" clip-rule="evenodd" d="M230.439 173.709L250.308 185.843V183.498L230.439 171.358V173.709Z" fill="#39709E"/>
<path fill-rule="evenodd" clip-rule="evenodd" d="M253.264 187.651L259.203 191.281V188.931L253.264 185.301V187.651Z" fill="#39709E"/>
<path fill-rule="evenodd" clip-rule="evenodd" d="M188.694 159.817L203.456 168.835V166.485L188.694 157.467V159.817Z" fill="#39709E"/>
<path fill-rule="evenodd" clip-rule="evenodd" d="M188.694 165.627L203.456 174.65V172.296L188.694 163.277V165.627Z" fill="#39709E"/>
<path fill-rule="evenodd" clip-rule="evenodd" d="M207.965 171.587L232.264 186.43V184.08L207.965 169.237V171.587Z" fill="#39709E"/>
<path fill-rule="evenodd" clip-rule="evenodd" d="M207.965 177.398L221.256 185.519V183.169L207.965 175.048V177.398Z" fill="#39709E"/>
<path fill-rule="evenodd" clip-rule="evenodd" d="M235.812 188.596L242.443 192.65V190.299L235.812 186.246V188.596Z" fill="#39709E"/>
<path fill-rule="evenodd" clip-rule="evenodd" d="M245.284 194.387L253.486 199.391V197.041L245.284 192.032V194.387Z" fill="#39709E"/>
<path fill-rule="evenodd" clip-rule="evenodd" d="M234.196 193.42L248.97 202.443V200.093L234.196 191.072V193.42Z" fill="#39709E"/>
<path fill-rule="evenodd" clip-rule="evenodd" d="M224.214 187.327L230.5 191.161V188.811L224.214 184.977V187.327Z" fill="#39709E"/>
<path fill-rule="evenodd" clip-rule="evenodd" d="M184.164 172.38L192.611 177.543V175.193L184.164 170.03V172.38Z" fill="#39709E"/>
<path fill-rule="evenodd" clip-rule="evenodd" d="M184.164 178.18L202.22 189.209V186.859L184.164 175.826V178.18Z" fill="#39709E"/>
<path fill-rule="evenodd" clip-rule="evenodd" d="M188.694 186.759L203.456 195.773V193.42L188.694 184.404V186.759Z" fill="#39709E"/>
<path fill-rule="evenodd" clip-rule="evenodd" d="M188.694 192.554L203.456 201.568V199.218L188.694 190.206V192.554Z" fill="#39709E"/>
<path fill-rule="evenodd" clip-rule="evenodd" d="M198.941 204.625L213.299 213.392V211.042L198.941 202.274V204.625Z" fill="#39709E"/>
<path fill-rule="evenodd" clip-rule="evenodd" d="M197.889 180.766L212.731 189.831V187.481L197.889 178.416V180.766Z" fill="#39709E"/>
<path fill-rule="evenodd" clip-rule="evenodd" d="M216.532 192.152L224.031 196.732V194.382L216.532 189.802V192.152Z" fill="#39709E"/>
<path fill-rule="evenodd" clip-rule="evenodd" d="M228.88 199.695L263.326 220.735V218.387L228.88 197.345V199.695Z" fill="#39709E"/>
<path fill-rule="evenodd" clip-rule="evenodd" d="M206.447 191.788L221.501 200.984V198.634L206.447 189.438V191.788Z" fill="#39709E"/>
<path fill-rule="evenodd" clip-rule="evenodd" d="M207.965 198.525L224.781 208.796V206.446L207.965 196.175V198.525Z" fill="#39709E"/>
<path fill-rule="evenodd" clip-rule="evenodd" d="M207.965 204.32L219.445 211.337V208.987L207.965 201.97V204.32Z" fill="#39709E"/>
<path fill-rule="evenodd" clip-rule="evenodd" d="M228.88 211.302L241.381 218.934V216.584L228.88 208.952V211.302Z" fill="#39709E"/>
<path fill-rule="evenodd" clip-rule="evenodd" d="M244.661 220.942L252.263 225.58V223.232L244.661 218.59V220.942Z" fill="#39709E"/>
<path fill-rule="evenodd" clip-rule="evenodd" d="M255.959 227.841L263.327 232.344V229.994L255.959 225.491V227.841Z" fill="#39709E"/>
<path fill-rule="evenodd" clip-rule="evenodd" d="M222.723 213.338L244.65 226.73V224.38L222.723 210.988V213.338Z" fill="#39709E"/>
<path fill-rule="evenodd" clip-rule="evenodd" d="M247.434 228.43L252.999 231.831V229.481L247.434 226.08V228.43Z" fill="#39709E"/>
<path fill-rule="evenodd" clip-rule="evenodd" d="M217.397 215.897L228.072 222.415V220.065L217.397 213.547V215.897Z" fill="#39709E"/>
<path fill-rule="evenodd" clip-rule="evenodd" d="M281.058 112.856L322.772 138.335V135.984L281.058 110.506V112.856Z" fill="#39709E"/>
<path fill-rule="evenodd" clip-rule="evenodd" d="M281.058 118.667L289.505 123.825V121.477L281.058 116.317V118.667Z" fill="#39709E"/>
<path fill-rule="evenodd" clip-rule="evenodd" d="M281.058 124.462L299.113 135.491V133.141L281.058 122.112V124.462Z" fill="#39709E"/>
<path fill-rule="evenodd" clip-rule="evenodd" d="M285.588 133.043L300.35 142.06V139.71L285.588 130.693V133.043Z" fill="#39709E"/>
<path fill-rule="evenodd" clip-rule="evenodd" d="M285.588 138.839L300.35 147.855V145.505L285.588 136.489V138.839Z" fill="#39709E"/>
<path fill-rule="evenodd" clip-rule="evenodd" d="M295.833 150.907L310.192 159.675V157.327L295.833 148.557V150.907Z" fill="#39709E"/>
<path fill-rule="evenodd" clip-rule="evenodd" d="M294.78 127.053L321.536 143.388V141.04L294.78 124.703V127.053Z" fill="#39709E"/>
<path fill-rule="evenodd" clip-rule="evenodd" d="M325.349 145.718L338.121 153.522V151.172L325.349 143.368V145.718Z" fill="#39709E"/>
<path fill-rule="evenodd" clip-rule="evenodd" d="M342.975 156.485L360.22 167.02V164.67L342.975 154.135V156.485Z" fill="#39709E"/>
<path fill-rule="evenodd" clip-rule="evenodd" d="M303.341 138.077L318.395 147.268V144.918L303.341 135.727V138.077Z" fill="#39709E"/>
<path fill-rule="evenodd" clip-rule="evenodd" d="M304.856 144.814L313.47 150.077V147.722L304.856 142.458V144.814Z" fill="#39709E"/>
<path fill-rule="evenodd" clip-rule="evenodd" d="M304.856 150.609L319.616 159.626V157.271L304.856 148.259V150.609Z" fill="#39709E"/>
<path fill-rule="evenodd" clip-rule="evenodd" d="M317.574 152.58L333.976 162.598V160.247L317.574 150.229V152.58Z" fill="#39709E"/>
<path fill-rule="evenodd" clip-rule="evenodd" d="M337.256 164.599L345.863 169.857V167.509L337.256 162.249V164.599Z" fill="#39709E"/>
<path fill-rule="evenodd" clip-rule="evenodd" d="M349.559 172.118L360.22 178.627V176.276L349.559 169.764V172.118Z" fill="#39709E"/>
<path fill-rule="evenodd" clip-rule="evenodd" d="M322.898 161.627L341.544 173.015V170.665L322.898 159.277V161.627Z" fill="#39709E"/>
<path fill-rule="evenodd" clip-rule="evenodd" d="M344.327 174.717L349.892 178.118V175.763L344.327 172.367V174.717Z" fill="#39709E"/>
<path fill-rule="evenodd" clip-rule="evenodd" d="M314.291 162.18L324.965 168.704V166.352L314.291 159.83V162.18Z" fill="#39709E"/>
<path fill-rule="evenodd" clip-rule="evenodd" d="M285.588 156.254L300.35 165.272V162.922L285.588 153.906V156.254Z" fill="#39709E"/>
<path fill-rule="evenodd" clip-rule="evenodd" d="M285.588 162.065L300.35 171.083V168.733L285.588 159.717V162.065Z" fill="#39709E"/>
<path fill-rule="evenodd" clip-rule="evenodd" d="M304.856 168.024L313.47 173.289V170.938L304.856 165.676V168.024Z" fill="#39709E"/>
<path fill-rule="evenodd" clip-rule="evenodd" d="M304.856 173.835L318.15 181.956V179.606L304.856 171.485V173.835Z" fill="#39709E"/>
<path fill-rule="evenodd" clip-rule="evenodd" d="M317.574 175.792L330.187 183.495V181.145L317.574 173.442V175.792Z" fill="#39709E"/>
<path fill-rule="evenodd" clip-rule="evenodd" d="M332.705 185.035L339.336 189.086V186.736L332.705 182.685V185.035Z" fill="#39709E"/>
<path fill-rule="evenodd" clip-rule="evenodd" d="M342.176 190.819L350.38 195.828V193.478L342.176 188.469V190.819Z" fill="#39709E"/>
<path fill-rule="evenodd" clip-rule="evenodd" d="M331.087 189.859L345.862 198.887V196.53L331.087 187.509V189.859Z" fill="#39709E"/>
<path fill-rule="evenodd" clip-rule="evenodd" d="M285.588 167.867L300.35 176.878V174.528L285.588 165.517V167.867Z" fill="#39709E"/>
<path fill-rule="evenodd" clip-rule="evenodd" d="M285.588 173.677L300.35 182.693V180.339L285.588 171.32V173.677Z" fill="#39709E"/>
<path fill-rule="evenodd" clip-rule="evenodd" d="M304.856 179.633L313.47 184.895V182.545L304.856 177.283V179.633Z" fill="#39709E"/>
<path fill-rule="evenodd" clip-rule="evenodd" d="M304.856 185.444L331.92 201.972V199.622L304.856 183.091V185.444Z" fill="#39709E"/>
<path fill-rule="evenodd" clip-rule="evenodd" d="M317.574 187.398L333.976 197.423V195.072L317.574 185.048V187.398Z" fill="#39709E"/>
<path fill-rule="evenodd" clip-rule="evenodd" d="M337.256 199.424L345.863 204.675V202.328L337.256 197.074V199.424Z" fill="#39709E"/>
<path fill-rule="evenodd" clip-rule="evenodd" d="M349.559 206.937L360.22 213.449V211.099L349.559 204.586V206.937Z" fill="#39709E"/>
<path fill-rule="evenodd" clip-rule="evenodd" d="M335.202 203.98L350.38 213.252V210.899L335.202 201.625V203.98Z" fill="#39709E"/>
<path fill-rule="evenodd" clip-rule="evenodd" d="M321.107 183.764L327.394 187.603V185.252L321.107 181.414V183.764Z" fill="#39709E"/>
<path fill-rule="evenodd" clip-rule="evenodd" d="M281.058 182.514L289.505 187.674V185.324L281.058 180.164V182.514Z" fill="#39709E"/>
<path fill-rule="evenodd" clip-rule="evenodd" d="M281.058 188.311L299.113 199.34V196.99L281.058 185.961V188.311Z" fill="#39709E"/>
<path fill-rule="evenodd" clip-rule="evenodd" d="M285.588 196.89L300.35 205.906V203.556L285.588 194.54V196.89Z" fill="#39709E"/>
<path fill-rule="evenodd" clip-rule="evenodd" d="M285.588 202.701L300.35 211.717V209.351L285.588 200.335V202.701Z" fill="#39709E"/>
<path fill-rule="evenodd" clip-rule="evenodd" d="M295.833 214.753L310.192 223.523V221.173L295.833 212.403V214.753Z" fill="#39709E"/>
<path fill-rule="evenodd" clip-rule="evenodd" d="M294.78 190.899L309.625 199.966V197.612L294.78 188.549V190.899Z" fill="#39709E"/>
<path fill-rule="evenodd" clip-rule="evenodd" d="M313.426 202.288L320.923 206.863V204.513L313.426 199.938V202.288Z" fill="#39709E"/>
<path fill-rule="evenodd" clip-rule="evenodd" d="M325.773 209.831L349.617 224.389V222.039L325.773 207.474V209.831Z" fill="#39709E"/>
<path fill-rule="evenodd" clip-rule="evenodd" d="M303.341 201.923L318.395 211.115V208.764L303.341 199.573V201.923Z" fill="#39709E"/>
<path fill-rule="evenodd" clip-rule="evenodd" d="M304.856 208.656L321.675 218.931V216.581L304.856 206.306V208.656Z" fill="#39709E"/>
<path fill-rule="evenodd" clip-rule="evenodd" d="M304.856 214.471L316.336 221.482V219.116L304.856 212.105V214.471Z" fill="#39709E"/>
<path fill-rule="evenodd" clip-rule="evenodd" d="M325.773 221.435L338.275 229.069V226.719L325.773 219.087V221.435Z" fill="#39709E"/>
<path fill-rule="evenodd" clip-rule="evenodd" d="M319.616 223.483L341.544 236.875V234.511L319.616 221.122V223.483Z" fill="#39709E"/>
<path fill-rule="evenodd" clip-rule="evenodd" d="M344.327 238.579L349.892 241.98V239.616L344.327 236.209V238.579Z" fill="#39709E"/>
<path fill-rule="evenodd" clip-rule="evenodd" d="M314.291 226.026L324.965 232.55V230.2L314.291 223.676V226.026Z" fill="#39709E"/>
<path fill-rule="evenodd" clip-rule="evenodd" d="M327.333 233.994L347.202 246.127V243.781L327.333 231.644V233.994Z" fill="#39709E"/>
<path fill-rule="evenodd" clip-rule="evenodd" d="M350.157 247.935L356.094 251.564V249.214L350.157 245.584V247.935Z" fill="#39709E"/>
<path fill-rule="evenodd" clip-rule="evenodd" d="M285.588 220.102L300.35 229.118V226.768L285.588 217.752V220.102Z" fill="#39709E"/>
<path fill-rule="evenodd" clip-rule="evenodd" d="M285.588 225.913L300.35 234.933V232.579L285.588 223.562V225.913Z" fill="#39709E"/>
<path fill-rule="evenodd" clip-rule="evenodd" d="M304.856 231.873L329.158 246.715V244.365L304.856 229.522V231.873Z" fill="#39709E"/>
<path fill-rule="evenodd" clip-rule="evenodd" d="M304.856 237.684L318.15 245.805V243.455L304.856 235.333V237.684Z" fill="#39709E"/>
<path fill-rule="evenodd" clip-rule="evenodd" d="M332.705 248.881L339.336 252.935V250.582L332.705 246.531V248.881Z" fill="#39709E"/>
<path fill-rule="evenodd" clip-rule="evenodd" d="M342.176 254.672L350.38 259.674V257.326L342.176 252.317V254.672Z" fill="#39709E"/>
<path fill-rule="evenodd" clip-rule="evenodd" d="M331.087 253.706L345.862 262.728V260.378L331.087 251.355V253.706Z" fill="#39709E"/>
<path fill-rule="evenodd" clip-rule="evenodd" d="M321.107 247.61L327.394 251.444V249.094L321.107 245.26V247.61Z" fill="#39709E"/>
<path fill-rule="evenodd" clip-rule="evenodd" d="M281.058 232.664L289.505 237.828V235.478L281.058 230.313V232.664Z" fill="#39709E"/>
<path fill-rule="evenodd" clip-rule="evenodd" d="M281.058 238.465L299.113 249.494V247.144L281.058 236.108V238.465Z" fill="#39709E"/>
<path fill-rule="evenodd" clip-rule="evenodd" d="M285.588 247.044L300.35 256.056V253.706L285.588 244.689V247.044Z" fill="#39709E"/>
<path fill-rule="evenodd" clip-rule="evenodd" d="M285.588 252.839L300.35 261.851V259.501L285.588 250.489V252.839Z" fill="#39709E"/>
<path fill-rule="evenodd" clip-rule="evenodd" d="M295.833 264.908L310.192 273.678V271.327L295.833 262.56V264.908Z" fill="#39709E"/>
<path fill-rule="evenodd" clip-rule="evenodd" d="M294.78 241.049L309.625 250.116V247.766L294.78 238.699V241.049Z" fill="#39709E"/>
<path fill-rule="evenodd" clip-rule="evenodd" d="M313.426 252.435L320.923 257.015V254.667L313.426 250.085V252.435Z" fill="#39709E"/>
<path fill-rule="evenodd" clip-rule="evenodd" d="M325.773 259.979L360.22 281.021V278.671L325.773 257.628V259.979Z" fill="#39709E"/>
<path fill-rule="evenodd" clip-rule="evenodd" d="M303.341 252.073L318.395 261.269V258.919L303.341 249.723V252.073Z" fill="#39709E"/>
<path fill-rule="evenodd" clip-rule="evenodd" d="M304.856 258.81L321.675 269.081V266.731L304.856 256.46V258.81Z" fill="#39709E"/>
<path fill-rule="evenodd" clip-rule="evenodd" d="M304.856 264.605L316.336 271.62V269.27L304.856 262.255V264.605Z" fill="#39709E"/>
<path fill-rule="evenodd" clip-rule="evenodd" d="M325.773 271.585L338.275 279.219V276.869L325.773 269.234V271.585Z" fill="#39709E"/>
<path fill-rule="evenodd" clip-rule="evenodd" d="M341.553 281.225L349.154 285.865V283.515L341.553 278.875V281.225Z" fill="#39709E"/>
<path fill-rule="evenodd" clip-rule="evenodd" d="M352.85 288.127L360.22 292.627V290.277L352.85 285.777V288.127Z" fill="#39709E"/>
<path fill-rule="evenodd" clip-rule="evenodd" d="M319.616 273.622L341.544 287.016V284.666L319.616 271.271V273.622Z" fill="#39709E"/>
<path fill-rule="evenodd" clip-rule="evenodd" d="M344.327 288.713L349.892 292.114V289.764L344.327 286.363V288.713Z" fill="#39709E"/>
<path fill-rule="evenodd" clip-rule="evenodd" d="M314.291 276.181L324.965 282.698V280.348L314.291 273.831V276.181Z" fill="#39709E"/>
<path d="M268.559 225.32C267.342 224.025 266.959 222.732 266.981 221.271C267.037 217.637 266.99 203.676 267.004 200.018C267.01 198.232 268.385 197.863 269.776 199.253C270.633 200.111 271.136 201.139 271.142 202.179C271.169 206.208 271.163 220.484 271.149 224.492C271.145 225.685 270.462 225.944 269.598 225.92C269.251 225.72 268.904 225.52 268.559 225.32Z" fill="#D4ECFF"/>
<path d="M262.84 185.499C262.84 191.794 262.845 208.356 262.838 214.647C262.836 216.506 261.505 216.926 260.085 215.529C259.251 214.707 258.799 213.738 258.695 212.679C258.674 212.47 258.681 212.277 258.681 212.077C258.681 199.611 258.677 176.876 258.683 164.415C258.686 159.064 261.356 156.238 265.697 156.942C271.703 157.915 278.535 166.605 279.349 174.313C279.414 174.912 279.469 175.514 279.467 176.083C279.467 177.398 278.612 177.936 277.507 177.365C276.372 176.778 275.399 175.268 275.332 173.88C275.241 171.989 274.812 170.066 273.699 168.053C272.099 165.157 270.103 163.224 267.82 162.453C265.568 161.691 263.968 162.338 263.236 164.45C262.976 165.199 262.862 166.123 262.856 167.071C262.822 173.198 262.84 179.353 262.84 185.499Z" fill="#D4ECFF"/>
<path d="M268.685 138.915C277.98 144.597 285.217 152.802 290.639 164.002C294.262 171.485 296.044 178.673 296.109 185.515C296.127 187.447 294.587 187.769 293.152 186.15C292.328 185.219 291.968 184.218 291.95 183.176C291.894 179.924 291.412 176.516 290.377 172.916C288.895 167.751 286.574 162.798 283.439 158.073C280.639 153.857 277.464 150.27 273.937 147.375C269.74 143.928 265.594 141.818 261.533 141.1C260.962 141 260.405 140.954 259.831 140.843C258.705 140.627 257.559 139.381 257.152 137.95C256.738 136.498 257.19 135.367 258.327 135.578C260.345 135.954 262.388 136.376 264.464 137.033C265.973 137.511 267.553 138.399 268.685 138.915Z" fill="#D4ECFF"/>
<path d="M250.363 160.474C250.278 157.016 250.755 153.797 252.15 151.32C254.744 146.707 258.91 145.112 264.676 146.827C270.546 148.573 275.911 153.122 280.711 160.07C281.667 161.454 281.837 162.964 281.167 163.637C280.481 164.326 279.237 163.855 278.234 162.436C276.848 160.47 275.399 158.62 273.757 157.058C265.526 149.244 257.014 149.71 254.949 158.138C254.664 159.306 254.602 160.679 254.537 162.02C254.468 163.464 254.537 164.992 254.515 166.467C254.495 167.851 253.581 168.353 252.421 167.671C251.289 167.005 250.399 165.479 250.37 164.104C250.345 162.951 250.363 161.82 250.363 160.474Z" fill="#D4ECFF"/>
<path d="M242.148 163.922C242.148 160.032 242.025 156.067 242.179 152.273C242.377 147.346 243.808 143.512 246.146 140.594C246.947 139.592 247.918 138.805 248.852 137.981C249.389 137.51 250.13 137.626 250.995 138.39C251.854 139.148 252.357 140.103 252.524 141.184C252.657 142.051 252.366 142.526 251.968 142.922C251.013 143.87 249.996 144.743 249.177 145.862C247.094 148.701 246.209 152.62 246.204 157.287C246.198 164.121 246.204 181.228 246.2 188.067C246.2 188.413 246.211 188.773 246.153 189.075C245.948 190.135 245.014 190.401 243.983 189.728C242.929 189.04 242.088 187.589 242.056 186.323C242.023 184.917 242.045 183.542 242.045 182.154C242.045 179.477 242.045 166.536 242.045 163.862C242.076 163.882 242.112 163.902 242.148 163.922Z" fill="#D4ECFF"/>
<path d="M287.796 195.511C287.796 200.886 287.8 216.531 287.794 221.902C287.791 223.754 286.45 224.167 285.032 222.763C284.2 221.939 283.748 220.969 283.65 219.914C283.624 219.629 283.637 219.363 283.637 219.089C283.637 209.551 283.617 189.735 283.648 180.217C283.657 177.498 283.432 174.717 282.593 171.661C282.119 169.928 282.796 168.953 284.051 169.324C285.088 169.63 286.078 170.863 286.501 172.36C287.382 175.486 287.798 178.44 287.796 181.241C287.794 185.997 287.796 190.755 287.796 195.511Z" fill="#D4ECFF"/>
<path d="M279.476 199.927C279.476 204.636 279.485 219.612 279.472 224.314C279.467 226.136 278.056 226.5 276.655 225.058C275.86 224.241 275.422 223.29 275.328 222.266C275.304 222.006 275.315 221.764 275.315 221.515C275.315 212.37 275.315 192.963 275.317 183.82C275.317 183.474 275.306 183.114 275.366 182.812C275.578 181.728 276.554 181.479 277.605 182.208C278.655 182.936 279.458 184.375 279.467 185.648C279.489 188.387 279.476 191.104 279.476 193.831C279.478 195.864 279.476 197.894 279.476 199.927Z" fill="#D4ECFF"/>
<path d="M271.157 182.036C271.157 185.579 271.171 189.131 271.151 192.663C271.142 194.429 269.727 194.751 268.343 193.351C267.535 192.536 267.019 191.399 267.005 190.33C266.987 189.006 266.999 187.7 266.999 186.387C266.999 180.739 266.999 175.088 267.001 169.441C267.001 169.119 266.992 168.786 267.047 168.506C267.259 167.422 268.231 167.167 269.282 167.891C270.334 168.617 271.135 170.054 271.151 171.327C271.175 173.349 271.16 175.346 271.16 177.354C271.157 178.913 271.157 180.474 271.157 182.036Z" fill="#D4ECFF"/>
<path d="M254.52 184.333C254.52 187.083 254.535 200.107 254.515 202.845C254.502 204.74 252.895 204.965 251.482 203.294C250.724 202.397 250.365 201.435 250.363 200.464C250.361 194.962 250.354 179.193 250.367 173.702C250.37 172.301 251.278 171.79 252.437 172.454C253.596 173.118 254.504 174.675 254.513 176.081C254.531 178.84 254.518 181.583 254.52 184.333Z" fill="#D4ECFF"/>
<path d="M296.114 201.166C296.114 203.074 296.121 215.249 296.112 217.152C296.105 218.716 295.235 219.289 294.005 218.563C292.803 217.852 291.96 216.301 291.955 214.767C291.949 210.948 291.949 196.867 291.955 193.058C291.957 191.536 292.823 190.972 294.029 191.665C295.235 192.358 296.103 193.922 296.11 195.444C296.121 197.356 296.114 199.258 296.114 201.166Z" fill="#D4ECFF"/>
<path d="M428.643 218.998C428.643 215.584 425.831 211.197 422.362 209.198L347.196 166.374C345.74 165.534 344.401 165.252 343.337 165.454C343.337 165.454 341.441 165.716 340.037 167.305C340.453 166.865 340.996 166.58 341.637 166.474C342.311 166.361 343.092 166.44 343.94 166.725C344.054 166.763 344.169 166.807 344.287 166.851C344.296 166.854 344.303 166.858 344.312 166.86C344.43 166.907 344.548 166.958 344.668 167.014C344.67 167.016 344.674 167.016 344.677 167.018C344.784 167.067 344.893 167.12 345.002 167.176C345.028 167.189 345.055 167.202 345.082 167.216C345.195 167.276 345.311 167.338 345.424 167.405L420.59 210.229C424.059 212.228 426.872 216.615 426.872 220.029V255.698C426.872 256.738 426.61 257.564 426.151 258.157C425.802 258.608 425.339 258.921 424.787 259.092C428.296 258.255 428.548 255.705 428.548 255.705C428.612 255.385 428.648 255.039 428.648 254.665V218.998H428.643Z" fill="#D4ECFF"/>
<path d="M426.148 258.157C426.609 257.564 426.869 256.736 426.869 255.698V220.029C426.869 216.615 424.057 212.228 420.588 210.229L345.422 167.404C345.306 167.338 345.193 167.276 345.079 167.216C345.052 167.202 345.026 167.189 344.999 167.176C344.89 167.12 344.781 167.067 344.674 167.018C344.672 167.016 344.667 167.016 344.665 167.014C344.545 166.958 344.427 166.909 344.309 166.86C344.3 166.858 344.294 166.854 344.285 166.851C344.169 166.805 344.053 166.763 343.937 166.725C343.09 166.438 342.309 166.36 341.634 166.474C340.994 166.583 340.451 166.865 340.034 167.305C339.95 167.393 339.872 167.489 339.799 167.589C339.796 167.591 339.794 167.596 339.792 167.598C339.374 168.184 339.138 168.979 339.138 169.963V205.633C339.138 209.047 341.95 213.434 345.42 215.433L420.585 258.257C422.199 259.188 423.67 259.434 424.782 259.092C425.336 258.921 425.799 258.608 426.148 258.157Z" fill="#173D7A"/>
<path d="M368.831 195.557C368.831 195.144 368.538 194.64 368.177 194.433L350.349 184.157C349.988 183.949 349.694 184.115 349.694 184.528V204.931C349.694 205.344 349.988 205.848 350.349 206.055L368.177 216.331C368.538 216.539 368.831 216.373 368.831 215.96V195.557ZM368.226 214.916C368.226 215.329 367.932 215.495 367.572 215.287L350.954 205.711C350.593 205.502 350.3 205 350.3 204.587V185.572C350.3 185.159 350.593 184.993 350.954 185.201L367.572 194.777C367.932 194.986 368.226 195.488 368.226 195.901V214.916Z" fill="#D4ECFF"/>
<path d="M351.8 203.332C351.8 203.312 351.8 203.29 351.8 203.27C351.918 202.808 352.036 202.348 352.151 201.884C352.343 201.119 352.815 200.817 353.56 200.966C354.352 201.122 355.144 201.275 355.937 201.435C356.17 201.482 356.348 201.426 356.493 201.284C356.755 201.026 356.9 200.646 356.982 200.202C356.991 200.151 356.949 200.038 356.909 199.969C356.459 199.225 356.204 198.485 356.146 197.748C356.135 197.616 356.108 197.488 355.994 197.354C355.941 197.292 355.896 197.188 355.876 197.108C355.783 196.704 355.69 196.301 355.614 195.902C355.549 195.562 355.563 195.28 355.776 195.162C355.825 195.135 355.861 195.053 355.861 194.971C355.868 194.473 355.863 193.969 355.865 193.467C355.868 192.854 356.005 192.363 356.281 191.997C357.062 190.962 358.578 191.264 360.02 192.714C360.521 193.218 360.897 193.811 361.028 194.516C361.037 194.562 361.059 194.622 361.088 194.667C361.48 195.264 361.598 195.839 361.613 196.393C361.631 197.032 361.62 197.659 361.629 198.296C361.631 198.378 361.669 198.494 361.715 198.587C361.833 198.82 361.934 199.045 361.911 199.256C361.865 199.682 361.776 200.073 361.62 200.404C361.593 200.462 361.549 200.515 361.493 200.52C361.388 200.529 361.355 200.613 361.346 200.729C361.293 201.404 361.041 201.852 360.587 202.072C360.509 202.11 360.483 202.172 360.514 202.301C360.592 202.614 360.656 202.928 360.754 203.243C360.95 203.869 361.255 204.411 361.753 204.865C362.49 205.533 363.211 206.251 363.938 206.948C364.677 207.657 365.147 208.499 365.336 209.476C365.436 209.993 365.536 210.513 365.639 211.033C365.71 211.395 365.683 211.455 365.445 211.475C360.977 208.901 356.511 206.326 352.042 203.752C351.962 203.612 351.88 203.472 351.8 203.332Z" fill="#D4ECFF"/>
<path d="M375.4 199.096V201.128L396.264 213.152V211.122L375.4 199.096Z" fill="#D4ECFF"/>
<path d="M375.4 207.048L417.128 231.096V229.063L375.4 205.016V207.048Z" fill="#D4ECFF"/>
<path d="M375.4 213.041L417.128 237.088V235.058L375.4 211.008V213.041Z" fill="#D4ECFF"/>
<path d="M375.4 218.994L417.128 243.044V241.011L375.4 216.961V218.994Z" fill="#D4ECFF"/>
<path d="M332.603 235.518C332.612 235.52 332.619 235.525 332.629 235.528C332.619 235.525 332.612 235.523 332.603 235.518Z" fill="#D4ECFF"/>
<path d="M332.982 235.68C332.985 235.683 332.99 235.683 332.992 235.685C332.99 235.683 332.985 235.683 332.982 235.68Z" fill="#D4ECFF"/>
<path d="M333.316 235.842C333.343 235.856 333.37 235.869 333.397 235.883C333.37 235.871 333.343 235.858 333.316 235.842Z" fill="#D4ECFF"/>
<path d="M438.552 300.604C438.552 297.19 435.739 292.803 432.27 290.803L335.513 235.04C334.058 234.201 332.718 233.919 331.655 234.121C331.655 234.121 329.759 234.383 328.354 235.971C328.771 235.531 329.314 235.247 329.954 235.14C330.629 235.027 331.41 235.107 332.258 235.391C332.371 235.429 332.487 235.474 332.605 235.518C332.614 235.52 332.62 235.525 332.629 235.527C332.747 235.573 332.865 235.625 332.985 235.68C332.987 235.682 332.992 235.682 332.994 235.685C333.101 235.733 333.21 235.787 333.319 235.842C333.346 235.856 333.372 235.869 333.399 235.882C333.513 235.942 333.628 236.004 333.742 236.071L430.499 291.834C433.968 293.833 436.781 298.22 436.781 301.634V355.763C436.781 356.802 436.518 357.628 436.06 358.222C435.711 358.672 435.248 358.986 434.696 359.157C438.205 358.319 438.456 355.769 438.456 355.769C438.521 355.449 438.557 355.103 438.557 354.73V300.604H438.552Z" fill="#D4ECFF"/>
<path d="M328.109 236.268L328.112 236.265C328.114 236.263 328.117 236.258 328.119 236.255C328.117 236.26 328.112 236.265 328.109 236.268Z" fill="white"/>
<path d="M436.057 358.224C436.518 357.631 436.778 356.802 436.778 355.765V301.637C436.778 298.223 433.966 293.836 430.496 291.836L333.739 236.073C333.623 236.007 333.51 235.945 333.396 235.885C333.37 235.871 333.343 235.858 333.316 235.845C333.207 235.789 333.098 235.736 332.991 235.687C332.989 235.685 332.985 235.685 332.983 235.682C332.862 235.627 332.744 235.578 332.627 235.529C332.618 235.527 332.611 235.523 332.602 235.52C332.486 235.474 332.371 235.431 332.255 235.394C331.407 235.107 330.626 235.029 329.952 235.143C329.311 235.252 328.768 235.534 328.352 235.973C328.267 236.062 328.189 236.158 328.116 236.258C328.114 236.26 328.112 236.264 328.109 236.267C327.691 236.853 327.455 237.648 327.455 238.632V292.761C327.455 296.175 330.268 300.562 333.737 302.561L430.494 358.324C432.107 359.255 433.578 359.501 434.691 359.159C435.245 358.988 435.708 358.675 436.057 358.224Z" fill="#173D7A"/>
<path d="M364.785 306.203L334.22 288.586V286.738L364.785 304.353V306.203Z" fill="#D4ECFF"/>
<path d="M380.972 319.933L334.22 292.989V291.139L380.972 318.083V319.933Z" fill="#D4ECFF"/>
<path d="M348.6 288.224L334.12 279.879V276.176L348.6 284.522V288.224Z" fill="#D4ECFF"/>
<path d="M374.748 303.174L360.269 294.828V291.125L374.748 299.471V303.174Z" fill="#D4ECFF"/>
<path d="M401.862 318.991L387.383 310.646V306.943L401.862 315.288V318.991Z" fill="#D4ECFF"/>
<path d="M429.615 335.038L415.136 326.693V322.99L429.615 331.335V335.038Z" fill="#D4ECFF"/>
<path d="M430.159 308.188L416.042 300.051V294.442L430.159 302.579V308.188Z" fill="#D4ECFF"/>
<path d="M350.504 269.089L334.275 259.735V247.104L350.504 256.456V269.089Z" fill="#D4ECFF"/>
<path opacity="0.6" d="M195.913 291.971C205.47 291.911 213.189 287.398 213.154 281.891C213.119 276.384 205.344 271.969 195.788 272.029C186.231 272.089 178.513 276.602 178.547 282.109C178.582 287.616 186.357 292.031 195.913 291.971Z" fill="#173D7A"/>
<path d="M242.125 236.085C243.275 230.625 243.625 224.443 243.82 218.272C244.083 209.982 243.898 201.415 243.916 192.972L195.522 142.14L158.334 138.337L147.128 137.191C147.145 145.656 146.961 154.008 147.223 162.602C147.419 169 147.769 175.581 148.919 182.37C154.809 217.113 170.504 248.799 195.522 277.363C207.694 277.496 217.658 274.346 225.36 267.856C233.489 261.005 239.099 250.438 242.125 236.085Z" fill="#D4ECFF"/>
<path d="M233.233 196.677L195.522 157.065L157.811 153.208C157.827 159.803 157.68 166.314 157.887 173.009C158.041 177.994 158.312 183.122 159.209 188.411C163.8 215.487 176.029 240.178 195.525 262.433C215.02 262.649 227.25 252.051 231.84 230.269C232.737 226.013 233.009 221.197 233.162 216.388C233.362 209.931 233.218 203.254 233.233 196.677Z" fill="#173D7A"/>
<path d="M255.144 186.435L206.749 135.603L158.838 130.703L147.129 137.191L195.523 142.14L243.917 192.972C243.9 201.415 244.084 209.982 243.822 218.272C243.626 224.443 243.276 230.625 242.126 236.085C239.102 250.439 233.492 261.005 225.363 267.853C239.701 262.474 249.093 249.768 253.355 229.547C254.505 224.088 254.854 217.906 255.05 211.735C255.311 203.445 255.126 194.878 255.144 186.435Z" fill="#396CAA"/>
<path d="M210.936 212.121L180.106 194.353C178.98 193.705 178.065 194.222 178.065 195.513C178.065 196.803 178.98 198.374 180.106 199.025L210.936 216.793C212.062 217.441 212.977 216.924 212.977 215.633C212.977 214.343 212.065 212.772 210.936 212.121Z" fill="#FF2C9C"/>
<defs>
<linearGradient id="paint0_linear_3606:5258" x1="99.8303" y1="371.641" x2="192.338" y2="371.641" gradientUnits="userSpaceOnUse">
<stop stop-color="#D7E5F5"/>
<stop offset="1" stop-color="#E2EEFC"/>
</linearGradient>
</defs>
</svg>
